<?xml version="1.0" encoding="UTF-8" standalone="no"?>
<svg
   xmlns:dc="http://purl.org/dc/elements/1.1/"
   xmlns:cc="http://creativecommons.org/ns#"
   xmlns:rdf="http://www.w3.org/1999/02/22-rdf-syntax-ns#"
   xmlns:svg="http://www.w3.org/2000/svg"
   xmlns="http://www.w3.org/2000/svg"
   xmlns:sodipodi="http://sodipodi.sourceforge.net/DTD/sodipodi-0.dtd"
   xmlns:inkscape="http://www.inkscape.org/namespaces/inkscape"
   inkscape:version="1.0 (4035a4f, 2020-05-01)"
   sodipodi:docname="logo-carlocksystems.svg"
   id="svg8"
   version="1.1"
   viewBox="0 0 150.4963 52"
   height="52mm"
   width="150.49629mm">
  <defs
     id="defs2" />
  <sodipodi:namedview
     inkscape:window-maximized="0"
     inkscape:window-y="23"
     inkscape:window-x="0"
     inkscape:window-height="943"
     inkscape:window-width="1252"
     showgrid="false"
     inkscape:document-rotation="0"
     inkscape:current-layer="layer1"
     inkscape:document-units="mm"
     inkscape:cy="-149.86205"
     inkscape:cx="660.26873"
     inkscape:zoom="0.35"
     inkscape:pageshadow="2"
     inkscape:pageopacity="0.0"
     borderopacity="1.0"
     bordercolor="#666666"
     pagecolor="#ffffff"
     id="base" />
  <metadata
     id="metadata5">
    <rdf:RDF>
      <cc:Work
         rdf:about="">
        <dc:format>image/svg+xml</dc:format>
        <dc:type
           rdf:resource="http://purl.org/dc/dcmitype/StillImage" />
        <dc:title></dc:title>
      </cc:Work>
    </rdf:RDF>
  </metadata>
  <g
     transform="translate(-52.29638,-66.401939)"
     id="layer1"
     inkscape:groupmode="layer"
     inkscape:label="Layer 1">
    <g
       transform="matrix(0.26458333,0,0,0.26458333,-126.50373,118.614)"
       id="g951">
      <polyline
         class="st0"
         points="89.7,54.7 90,54.7 90,57.1 92.3,54.7 92.7,54.7 91.1,56.3 92.8,58.4 92.4,58.4 90.9,56.5 90,57.4   90,58.4 89.7,58.4 89.7,54.7 "
         id="polyline835" />
      <path
         class="st0"
         d="m 155.8,57.8 0.2,-0.2 c 0.3,0.4 0.8,0.6 1.3,0.5 0.6,0 0.9,-0.3 0.9,-0.7 v 0 c 0,-0.4 -0.2,-0.6 -1,-0.8 -0.8,-0.2 -1.2,-0.5 -1.2,-1 v 0 c 0,-0.6 0.5,-1 1.1,-1 0,0 0,0 0.1,0 0.5,0 0.9,0.1 1.3,0.4 l -0.2,0.2 c -0.3,-0.3 -0.7,-0.4 -1.1,-0.4 -0.5,0 -0.9,0.3 -0.9,0.7 v 0 c 0,0.4 0.2,0.6 1.1,0.8 0.9,0.2 1.2,0.5 1.2,1 v 0 c 0,0.6 -0.5,1 -1.2,1 -0.6,0.1 -1.2,-0.1 -1.6,-0.5"
         id="path837" />
      <polygon
         class="st0"
         points="96.1,54.7 93.5,54.7 93.5,58.4 96.1,58.4 96.1,58.1 93.8,58.1 93.8,56.6 95.9,56.6 95.9,56.4 93.8,56.4 93.8,54.9 96.1,54.9 "
         id="polygon839" />
      <polygon
         class="st0"
         points="98.5,56.9 100.1,54.7 99.7,54.7 98.4,56.7 97,54.7 96.6,54.7 98.2,56.9 98.2,58.4 98.5,58.4 "
         id="polygon841" />
      <path
         class="st0"
         d="m 101.8,56.4 c -0.9,-0.2 -1.1,-0.4 -1.1,-0.8 v 0 c 0,-0.4 0.4,-0.7 0.9,-0.7 0.4,0 0.8,0.1 1.1,0.4 l 0.2,-0.2 c -0.3,-0.3 -0.8,-0.5 -1.3,-0.4 -0.6,-0.1 -1.1,0.4 -1.2,0.9 0,0 0,0 0,0.1 v 0 c 0,0.5 0.4,0.8 1.2,1 0.8,0.2 1,0.4 1,0.8 v 0 c 0,0.4 -0.4,0.7 -0.9,0.7 -0.5,0 -1,-0.2 -1.3,-0.5 l -0.2,0.2 c 0.4,0.4 0.9,0.6 1.5,0.6 0.6,0.1 1.1,-0.3 1.2,-0.9 0,0 0,0 0,-0.1 v 0 c 0.2,-0.6 -0.2,-0.9 -1.1,-1.1 z"
         id="path843" />
      <rect
         x="105.4"
         y="56.700001"
         class="st0"
         width="1.4"
         height="0.30000001"
         id="rect845" />
      <path
         class="st0"
         d="m 112.1,55.8 v 0 c 0,-0.3 -0.1,-0.5 -0.3,-0.7 -0.3,-0.2 -0.6,-0.4 -1,-0.4 h -1.6 v 3.7 h 0.3 v -1.5 h 1.2 l 1.2,1.5 h 0.3 l -1.3,-1.6 c 0.8,-0.1 1.2,-0.4 1.2,-1 z m -2.6,0.8 v -1.7 h 1.2 c 0.7,0 1.1,0.3 1.1,0.8 v 0 c 0,0.5 -0.5,0.8 -1.1,0.8 z"
         id="path847" />
      <polygon
         class="st0"
         points="115.7,54.7 113.1,54.7 113.1,58.4 115.7,58.4 115.7,58.1 113.3,58.1 113.3,56.6 115.4,56.6 115.4,56.4 113.3,56.4 113.3,54.9 115.7,54.9 "
         id="polygon849" />
      <polygon
         class="st0"
         points="118.3,57.3 118.3,57.3 119.8,55.2 119.8,58.4 120.1,58.4 120.1,54.7 119.8,54.7 118.3,56.9 116.8,54.7 116.6,54.7 116.6,58.4 116.8,58.4 116.8,55.2 "
         id="polygon851" />
      <path
         class="st0"
         d="m 122.8,54.6 c -1,0 -1.9,0.8 -1.9,1.8 0,0 0,0 0,0.1 v 0 c 0,1 0.8,1.9 1.8,1.9 1,0 1.9,-0.8 1.9,-1.8 0,0 0,0 0,0 v 0 c 0.1,-1.1 -0.7,-1.9 -1.8,-2 0.1,0 0.1,0 0,0 z m 1.6,1.9 c 0,0.9 -0.7,1.6 -1.6,1.6 -0.9,0 -1.6,-0.7 -1.6,-1.6 0,0 0,0 0,0 v 0 c 0,-0.9 0.6,-1.6 1.5,-1.6 0,0 0,0 0.1,0 0.9,0 1.6,0.7 1.6,1.6 0,0 0,0 0,0 z"
         id="path853" />
      <polygon
         class="st0"
         points="127.9,54.7 125.1,54.7 125.1,54.9 126.3,54.9 126.3,58.4 126.6,58.4 126.6,54.9 127.9,54.9 "
         id="polygon855" />
      <polygon
         class="st0"
         points="131.4,54.7 128.7,54.7 128.7,58.4 131.4,58.4 131.4,58.1 129,58.1 129,56.6 131.1,56.6 131.1,56.4 129,56.4 129,54.9 131.4,54.9 "
         id="polygon857" />
      <path
         class="st0"
         d="m 133.5,56.4 c -0.9,-0.2 -1.1,-0.4 -1.1,-0.8 v 0 c 0,-0.4 0.4,-0.7 0.9,-0.7 0.4,0 0.8,0.1 1.1,0.4 l 0.2,-0.2 c -0.4,-0.3 -0.8,-0.5 -1.3,-0.4 -0.6,-0.1 -1.1,0.4 -1.2,0.9 0,0 0,0 0,0.1 v 0 c 0,0.5 0.4,0.8 1.2,1 0.8,0.2 1.1,0.4 1.1,0.8 v 0 c 0,0.4 -0.4,0.7 -0.9,0.7 -0.5,0 -1,-0.2 -1.3,-0.5 l -0.2,0.2 c 0.4,0.4 0.9,0.6 1.5,0.6 0.6,0.1 1.1,-0.3 1.2,-0.9 0,0 0,0 0,-0.1 v 0 c 0,-0.6 -0.3,-0.9 -1.2,-1.1 z"
         id="path859" />
      <rect
         x="137"
         y="56.700001"
         class="st0"
         width="1.4"
         height="0.30000001"
         id="rect861" />
      <polygon
         class="st0"
         points="141.2,54.7 140.9,54.7 140.9,58.4 143.4,58.4 143.4,58.1 141.2,58.1 "
         id="polygon863" />
      <path
         class="st0"
         d="m 145.7,54.6 c -1,0 -1.9,0.8 -1.9,1.8 0,0 0,0 0,0.1 v 0 c 0,1 0.8,1.9 1.8,1.9 0,0 0,0 0.1,0 1,0 1.9,-0.8 1.9,-1.8 0,0 0,0 0,-0.1 v 0 c -0.1,-1 -0.8,-1.8 -1.9,-1.9 0,0 0,0 0,0 z m 1.5,1.9 c 0,0.9 -0.6,1.6 -1.5,1.6 0,0 0,0 -0.1,0 -0.9,0 -1.6,-0.7 -1.6,-1.6 0,0 0,0 0,0 v 0 c 0,-0.9 0.6,-1.6 1.5,-1.6 0,0 0,0 0.1,0 0.9,0 1.6,0.7 1.6,1.6 0,0 0,0 0,0 z"
         id="path865" />
      <path
         class="st0"
         d="m 150.1,58.2 c -0.9,0 -1.6,-0.7 -1.6,-1.6 0,0 0,0 0,0 v 0 c 0,-0.9 0.6,-1.6 1.5,-1.6 0,0 0,0 0.1,0 0.5,0 0.9,0.2 1.2,0.5 l 0.2,-0.2 c -0.4,-0.4 -0.9,-0.6 -1.4,-0.6 -1,0 -1.8,0.8 -1.8,1.9 0,0 0,0 0,0 v 0 c 0,1 0.7,1.9 1.8,1.9 0,0 0,0 0.1,0 0.6,0 1.1,-0.2 1.5,-0.6 l -0.2,-0.2 c -0.4,0.3 -0.9,0.5 -1.4,0.5 z"
         id="path867" />
      <polygon
         class="st0"
         points="152.6,58.4 152.6,57.4 153.5,56.5 155,58.4 155.4,58.4 153.7,56.3 155.3,54.7 154.9,54.7 152.6,57.1 152.6,54.7 152.3,54.7 152.3,58.4 "
         id="polygon869" />
      <path
         class="st0"
         d="m 94.6,21.6 c 1.6,0.1 3.2,-0.6 4.3,-1.9 l -1.5,-1.5 c -0.7,0.8 -1.7,1.2 -2.8,1.2 -1.7,-0.1 -3.1,-1.5 -3,-3.3 0,0 0,0 0,-0.1 v 0 c -0.1,-1.7 1.2,-3.2 3,-3.3 0,0 0,0 0,0 1,0 2,0.5 2.7,1.2 l 1.5,-1.7 c -1.1,-1.1 -2.6,-1.7 -4.1,-1.6 -3,-0.1 -5.4,2.3 -5.5,5.2 0,0.1 0,0.2 0,0.2 v 0 c -0.1,2.9 2.3,5.4 5.2,5.4 0.1,0.2 0.2,0.2 0.2,0.2 z"
         id="path871" />
      <path
         class="st0"
         d="m 103.2,19.1 h 4.4 l 1,2.4 h 2.4 l -4.5,-10.6 h -2.1 l -4.5,10.6 h 2.4 z m 2.2,-5.5 1.4,3.4 H 104 Z"
         id="path873" />
      <path
         class="st0"
         d="m 115,18.1 h 1.8 l 2.2,3.4 h 2.7 l -2.6,-3.8 c 1.4,-0.5 2.3,-1.8 2.2,-3.3 v 0 c 0,-0.9 -0.3,-1.8 -0.9,-2.4 -0.8,-0.8 -1.9,-1.1 -3.1,-1.1 h -4.8 v 10.5 h 2.4 v -3.3 z m 0,-5.1 h 2.3 c 1.1,0 1.8,0.5 1.8,1.5 v 0 c 0,0.9 -0.7,1.5 -1.8,1.5 H 115 Z"
         id="path875" />
      <polygon
         class="st0"
         points="89.7,25.6 89.7,36.2 97.2,36.2 97.2,34 92,34 92,25.6 "
         id="polygon877" />
      <path
         class="st0"
         d="m 97.9,30.9 c 0.1,3.1 2.7,5.5 5.8,5.4 2.9,-0.1 5.2,-2.5 5.4,-5.4 v 0 c -0.1,-3.1 -2.7,-5.5 -5.8,-5.4 -2.9,0.2 -5.3,2.5 -5.4,5.4 z m 2.4,0 c -0.1,-1.7 1.3,-3.2 3,-3.3 0,0 0.1,0 0.1,0 1.8,0 3.2,1.5 3.2,3.2 0,0 0,0.1 0,0.1 v 0 c 0.1,1.7 -1.3,3.2 -3,3.3 0,0 -0.1,0 -0.1,0 -1.8,0 -3.2,-1.4 -3.2,-3.2 0,-0.1 0,-0.1 0,-0.1 z"
         id="path879" />
      <path
         class="st0"
         d="m 110.7,30.9 c -0.1,2.9 2.3,5.4 5.2,5.4 0.1,0 0.1,0 0.2,0 1.7,0.1 3.2,-0.6 4.3,-1.9 l -1.5,-1.5 c -0.7,0.8 -1.7,1.2 -2.8,1.2 -1.7,-0.1 -3.1,-1.5 -3,-3.3 0,0 0,0 0,-0.1 v 0 c -0.1,-1.7 1.2,-3.2 3,-3.3 0,0 0,0 0,0 1,0 2,0.5 2.7,1.2 l 1.5,-1.7 c -1.1,-1.1 -2.6,-1.7 -4.2,-1.6 -3,-0.1 -5.4,2.3 -5.5,5.2 0.1,0.3 0.1,0.4 0.1,0.4 z"
         id="path881" />
      <polygon
         class="st0"
         points="128.8,25.6 124.6,30.2 124.6,25.6 122.3,25.6 122.3,36.2 124.6,36.2 124.6,33 125.8,31.7 129.1,36.2 131.8,36.2 127.3,30.1 131.6,25.6 "
         id="polygon883" />
      <path
         class="st0"
         d="M 97.3,47.7 C 97.3,45.9 96.1,45.1 94,44.5 92.2,44 91.7,43.8 91.7,43.1 v 0 c 0,-0.5 0.5,-0.9 1.4,-0.9 1,0.1 1.9,0.4 2.7,1 L 97,41.5 c -1.1,-0.9 -2.5,-1.4 -3.9,-1.3 -2.2,0 -3.7,1.3 -3.7,3.2 v 0 c 0,2.1 1.4,2.7 3.5,3.2 1.8,0.5 2.1,0.8 2.1,1.3 v 0 c 0,0.6 -0.6,1 -1.5,1 -1.2,0 -2.3,-0.5 -3.1,-1.3 L 89,49.3 c 1.2,1.1 2.8,1.7 4.4,1.7 2.3,0 3.9,-1.2 3.9,-3.3 z"
         id="path885" />
      <polygon
         class="st0"
         points="104.1,46.7 108.2,40.3 105.6,40.3 103,44.6 100.5,40.3 97.8,40.3 101.8,46.7 101.8,50.9 104.1,50.9 "
         id="polygon887" />
      <path
         class="st0"
         d="m 116.7,47.8 v 0 c 0,-1.8 -1.2,-2.6 -3.3,-3.2 -1.8,-0.5 -2.3,-0.7 -2.3,-1.4 v 0 c 0,-0.5 0.5,-0.9 1.3,-0.9 1,0 1.9,0.4 2.7,1 l 1.2,-1.7 c -1.1,-0.9 -2.5,-1.4 -3.9,-1.3 -2.2,0 -3.7,1.3 -3.7,3.2 v 0 c 0,2.1 1.4,2.7 3.5,3.2 1.8,0.5 2.1,0.8 2.1,1.3 v 0 c 0,0.6 -0.6,1 -1.5,1 -1.2,0 -2.3,-0.5 -3.1,-1.3 l -1.4,1.6 c 1.2,1.1 2.8,1.7 4.5,1.7 2.3,0 3.9,-1.2 3.9,-3.2 z"
         id="path889" />
      <polygon
         class="st0"
         points="120.9,42.5 120.9,50.9 123.2,50.9 123.2,42.5 126.4,42.5 126.4,40.3 117.7,40.3 117.7,42.5 "
         id="polygon891" />
      <polygon
         class="st0"
         points="136.2,40.3 128.2,40.3 128.2,50.9 136.2,50.9 136.2,48.8 130.5,48.8 130.5,46.6 135.5,46.6 135.5,44.5 130.5,44.5 130.5,42.4 136.2,42.4 "
         id="polygon893" />
      <polygon
         class="st0"
         points="138.3,40.3 138.3,50.9 140.6,50.9 140.6,44 143.5,48.5 143.6,48.5 146.5,44 146.5,50.9 148.8,50.9 148.8,40.3 146.3,40.3 143.6,44.8 140.8,40.3 "
         id="polygon895" />
      <path
         class="st0"
         d="m 155.6,44.6 c -1.8,-0.5 -2.3,-0.7 -2.3,-1.4 v 0 c 0,-0.5 0.5,-0.9 1.4,-0.9 1,0.1 1.9,0.4 2.7,1 l 1.2,-1.7 c -1.1,-0.9 -2.5,-1.4 -3.9,-1.3 -2.2,0 -3.7,1.3 -3.7,3.2 v 0 c 0,2.1 1.4,2.7 3.5,3.2 1.8,0.5 2.1,0.8 2.1,1.3 v 0 c 0,0.6 -0.6,1 -1.5,1 -1.2,0 -2.3,-0.4 -3.1,-1.2 l -1.4,1.6 c 1.2,1.1 2.8,1.7 4.4,1.7 2.3,0 3.9,-1.2 3.9,-3.3 v 0 c 0.1,-1.9 -1.1,-2.7 -3.3,-3.2 z"
         id="path897" />
      <path
         class="st0"
         d="m 63.9,33.2 v 0 c -0.7,0 -1.3,0.6 -1.3,1.3 0,0.7 0.6,1.3 1.3,1.3 0,0 0,0 0,0 0.7,-0.1 1.2,-0.7 1.2,-1.4 -0.1,-0.7 -0.6,-1.1 -1.2,-1.2 z"
         id="path899" />
      <path
         class="st0"
         d="M 68.8,30 C 68.7,26.5 68,24.4 66.6,23.7 65.3,23.2 64,23 62.7,23 c -1.6,0 -2.9,0 -5,0 h -4.2 c -3.3,-0.1 -6.6,0.1 -9.9,0.5 h -0.4 c -2.1,0 -3.9,1.6 -4.2,3.7 -0.3,1.4 -0.5,2.7 -0.4,4.1 0,1.4 0.1,2.8 0.5,4.1 0.4,2 2.1,3.5 4.2,3.5 h 0.4 c 2.9,0.3 5.7,0.4 8.6,0.3 h 5.5 c 2.2,0 3.4,0 5,0 1.3,0 2.7,-0.3 3.9,-0.8 1.3,-0.7 2,-2.7 2.1,-6.3 H 84 V 30 Z M 50.2,37.1 C 48.1,37.1 46,37 43.9,36.8 h -0.4 c -1.4,-0.2 -2,-0.7 -2.3,-1.9 -0.3,-1.2 -0.4,-2.4 -0.4,-3.7 0,-1.2 0.1,-2.5 0.4,-3.7 0.3,-1.2 0.9,-1.8 2.3,-1.9 h 0.4 c 2.1,-0.2 4.2,-0.4 6.3,-0.4 1.1,1.8 1.7,3.9 1.7,6 -0.1,2.1 -0.6,4.1 -1.7,5.9 z m 7.2,0 h -4.7 c 0.9,-1.8 1.3,-3.8 1.3,-5.9 0,-2.1 -0.5,-4.1 -1.4,-6 h 0.9 3.8 c 1.4,3.9 1.4,8.1 0.1,12 z m 8.3,-0.6 c -1,0.4 -2,0.6 -3,0.5 -1,0 -2,0 -3.1,0 1.2,-3.9 1.2,-8.1 -0.1,-12 h 1.5 1.6 c 1,0 2,0.1 3,0.5 0,0 1,0.6 1.1,5.4 0.1,4.8 -1,5.6 -1,5.6 z"
         id="path901" />
      <path
         class="st1"
         d="m 57.7,39.2 h -1.3 c -2.9,5.9 -9,10 -16.1,10.1 -9.9,0 -18,-8.1 -18,-18 0,-9.9 8.1,-18 18,-18 7,0 13,4 16,9.7 h 1.4 c 0.4,0 0.7,0 1.1,0 -3.2,-7 -10.2,-12 -18.4,-12 0,0 0,0 0,0 -11.1,0 -20.2,9 -20.2,20.2 0,11.1 9,20.2 20.2,20.2 8.3,0 15.4,-5 18.5,-12.2 -0.4,0 -0.8,0 -1.2,0 z"
         id="path903" />
      <path
         class="st1"
         d="m 48.6,39.2 c -2.1,2.2 -5,3.5 -8.3,3.5 -6.4,0 -11.5,-5.2 -11.5,-11.5 0,-6.4 5.2,-11.5 11.5,-11.5 3.2,0 6.1,1.3 8.2,3.4 0.9,0 1.8,-0.1 2.8,-0.1 -2.5,-3.3 -6.4,-5.4 -10.9,-5.4 0,0 0,0 0,0 -7.5,0 -13.6,6.1 -13.6,13.7 0,7.5 6.1,13.6 13.7,13.6 4.5,0 8.6,-2.2 11,-5.7 -1,0 -2,0 -2.9,0 z"
         id="path905" />
    </g>
    <g
       transform="matrix(1.0850037,0,0,1.0850037,30.379305,54.912605)"
       id="g2996">
      <polyline
         class="st0"
         points="89.7,54.7 90,54.7 90,57.1 92.3,54.7 92.7,54.7 91.1,56.3 92.8,58.4 92.4,58.4 90.9,56.5 90,57.4   90,58.4 89.7,58.4 89.7,54.7 "
         id="polyline2880" />
      <path
         class="st0"
         d="m 155.8,57.8 0.2,-0.2 c 0.3,0.4 0.8,0.6 1.3,0.5 0.6,0 0.9,-0.3 0.9,-0.7 v 0 c 0,-0.4 -0.2,-0.6 -1,-0.8 -0.8,-0.2 -1.2,-0.5 -1.2,-1 v 0 c 0,-0.6 0.5,-1 1.1,-1 0,0 0,0 0.1,0 0.5,0 0.9,0.1 1.3,0.4 l -0.2,0.2 c -0.3,-0.3 -0.7,-0.4 -1.1,-0.4 -0.5,0 -0.9,0.3 -0.9,0.7 v 0 c 0,0.4 0.2,0.6 1.1,0.8 0.9,0.2 1.2,0.5 1.2,1 v 0 c 0,0.6 -0.5,1 -1.2,1 -0.6,0.1 -1.2,-0.1 -1.6,-0.5"
         id="path2882" />
      <polygon
         class="st0"
         points="96.1,58.4 96.1,58.1 93.8,58.1 93.8,56.6 95.9,56.6 95.9,56.4 93.8,56.4 93.8,54.9 96.1,54.9 96.1,54.7 93.5,54.7 93.5,58.4 "
         id="polygon2884" />
      <polygon
         class="st0"
         points="98.4,56.7 97,54.7 96.6,54.7 98.2,56.9 98.2,58.4 98.5,58.4 98.5,56.9 100.1,54.7 99.7,54.7 "
         id="polygon2886" />
      <path
         class="st0"
         d="m 101.8,56.4 c -0.9,-0.2 -1.1,-0.4 -1.1,-0.8 v 0 c 0,-0.4 0.4,-0.7 0.9,-0.7 0.4,0 0.8,0.1 1.1,0.4 l 0.2,-0.2 c -0.3,-0.3 -0.8,-0.5 -1.3,-0.4 -0.6,-0.1 -1.1,0.4 -1.2,0.9 0,0 0,0 0,0.1 v 0 c 0,0.5 0.4,0.8 1.2,1 0.8,0.2 1,0.4 1,0.8 v 0 c 0,0.4 -0.4,0.7 -0.9,0.7 -0.5,0 -1,-0.2 -1.3,-0.5 l -0.2,0.2 c 0.4,0.4 0.9,0.6 1.5,0.6 0.6,0.1 1.1,-0.3 1.2,-0.9 0,0 0,0 0,-0.1 v 0 c 0.2,-0.6 -0.2,-0.9 -1.1,-1.1 z"
         id="path2888" />
      <rect
         x="105.4"
         y="56.700001"
         class="st0"
         width="1.4"
         height="0.30000001"
         id="rect2890" />
      <path
         class="st0"
         d="m 112.1,55.8 v 0 c 0,-0.3 -0.1,-0.5 -0.3,-0.7 -0.3,-0.2 -0.6,-0.4 -1,-0.4 h -1.6 v 3.7 h 0.3 v -1.5 h 1.2 l 1.2,1.5 h 0.3 l -1.3,-1.6 c 0.8,-0.1 1.2,-0.4 1.2,-1 z m -2.6,0.8 v -1.7 h 1.2 c 0.7,0 1.1,0.3 1.1,0.8 v 0 c 0,0.5 -0.5,0.8 -1.1,0.8 z"
         id="path2892" />
      <polygon
         class="st0"
         points="115.7,58.4 115.7,58.1 113.3,58.1 113.3,56.6 115.4,56.6 115.4,56.4 113.3,56.4 113.3,54.9 115.7,54.9 115.7,54.7 113.1,54.7 113.1,58.4 "
         id="polygon2894" />
      <polygon
         class="st0"
         points="119.8,58.4 120.1,58.4 120.1,54.7 119.8,54.7 118.3,56.9 116.8,54.7 116.6,54.7 116.6,58.4 116.8,58.4 116.8,55.2 118.3,57.3 119.8,55.2 "
         id="polygon2896" />
      <path
         class="st0"
         d="m 122.8,54.6 c -1,0 -1.9,0.8 -1.9,1.8 0,0 0,0 0,0.1 v 0 c 0,1 0.8,1.9 1.8,1.9 1,0 1.9,-0.8 1.9,-1.8 0,0 0,0 0,0 v 0 c 0.1,-1.1 -0.7,-1.9 -1.8,-2 0.1,0 0.1,0 0,0 z m 1.6,1.9 c 0,0.9 -0.7,1.6 -1.6,1.6 -0.9,0 -1.6,-0.7 -1.6,-1.6 0,0 0,0 0,0 v 0 c 0,-0.9 0.6,-1.6 1.5,-1.6 0,0 0,0 0.1,0 0.9,0 1.6,0.7 1.6,1.6 0,0 0,0 0,0 z"
         id="path2898" />
      <polygon
         class="st0"
         points="126.3,54.9 126.3,58.4 126.6,58.4 126.6,54.9 127.9,54.9 127.9,54.7 125.1,54.7 125.1,54.9 "
         id="polygon2900" />
      <polygon
         class="st0"
         points="131.4,58.4 131.4,58.1 129,58.1 129,56.6 131.1,56.6 131.1,56.4 129,56.4 129,54.9 131.4,54.9 131.4,54.7 128.7,54.7 128.7,58.4 "
         id="polygon2902" />
      <path
         class="st0"
         d="m 133.5,56.4 c -0.9,-0.2 -1.1,-0.4 -1.1,-0.8 v 0 c 0,-0.4 0.4,-0.7 0.9,-0.7 0.4,0 0.8,0.1 1.1,0.4 l 0.2,-0.2 c -0.4,-0.3 -0.8,-0.5 -1.3,-0.4 -0.6,-0.1 -1.1,0.4 -1.2,0.9 0,0 0,0 0,0.1 v 0 c 0,0.5 0.4,0.8 1.2,1 0.8,0.2 1.1,0.4 1.1,0.8 v 0 c 0,0.4 -0.4,0.7 -0.9,0.7 -0.5,0 -1,-0.2 -1.3,-0.5 l -0.2,0.2 c 0.4,0.4 0.9,0.6 1.5,0.6 0.6,0.1 1.1,-0.3 1.2,-0.9 0,0 0,0 0,-0.1 v 0 c 0,-0.6 -0.3,-0.9 -1.2,-1.1 z"
         id="path2904" />
      <rect
         x="137"
         y="56.700001"
         class="st0"
         width="1.4"
         height="0.30000001"
         id="rect2906" />
      <polygon
         class="st0"
         points="143.4,58.4 143.4,58.1 141.2,58.1 141.2,54.7 140.9,54.7 140.9,58.4 "
         id="polygon2908" />
      <path
         class="st0"
         d="m 145.7,54.6 c -1,0 -1.9,0.8 -1.9,1.8 0,0 0,0 0,0.1 v 0 c 0,1 0.8,1.9 1.8,1.9 0,0 0,0 0.1,0 1,0 1.9,-0.8 1.9,-1.8 0,0 0,0 0,-0.1 v 0 c -0.1,-1 -0.8,-1.8 -1.9,-1.9 0,0 0,0 0,0 z m 1.5,1.9 c 0,0.9 -0.6,1.6 -1.5,1.6 0,0 0,0 -0.1,0 -0.9,0 -1.6,-0.7 -1.6,-1.6 0,0 0,0 0,0 v 0 c 0,-0.9 0.6,-1.6 1.5,-1.6 0,0 0,0 0.1,0 0.9,0 1.6,0.7 1.6,1.6 0,0 0,0 0,0 z"
         id="path2910" />
      <path
         class="st0"
         d="m 150.1,58.2 c -0.9,0 -1.6,-0.7 -1.6,-1.6 0,0 0,0 0,0 v 0 c 0,-0.9 0.6,-1.6 1.5,-1.6 0,0 0,0 0.1,0 0.5,0 0.9,0.2 1.2,0.5 l 0.2,-0.2 c -0.4,-0.4 -0.9,-0.6 -1.4,-0.6 -1,0 -1.8,0.8 -1.8,1.9 0,0 0,0 0,0 v 0 c 0,1 0.7,1.9 1.8,1.9 0,0 0,0 0.1,0 0.6,0 1.1,-0.2 1.5,-0.6 l -0.2,-0.2 c -0.4,0.3 -0.9,0.5 -1.4,0.5 z"
         id="path2912" />
      <polygon
         class="st0"
         points="155,58.4 155.4,58.4 153.7,56.3 155.3,54.7 154.9,54.7 152.6,57.1 152.6,54.7 152.3,54.7 152.3,58.4 152.6,58.4 152.6,57.4 153.5,56.5 "
         id="polygon2914" />
      <path
         class="st0"
         d="m 94.6,21.6 c 1.6,0.1 3.2,-0.6 4.3,-1.9 l -1.5,-1.5 c -0.7,0.8 -1.7,1.2 -2.8,1.2 -1.7,-0.1 -3.1,-1.5 -3,-3.3 0,0 0,0 0,-0.1 v 0 c -0.1,-1.7 1.2,-3.2 3,-3.3 0,0 0,0 0,0 1,0 2,0.5 2.7,1.2 l 1.5,-1.7 c -1.1,-1.1 -2.6,-1.7 -4.1,-1.6 -3,-0.1 -5.4,2.3 -5.5,5.2 0,0.1 0,0.2 0,0.2 v 0 c -0.1,2.9 2.3,5.4 5.2,5.4 0.1,0.2 0.2,0.2 0.2,0.2 z"
         id="path2916" />
      <path
         class="st0"
         d="m 103.2,19.1 h 4.4 l 1,2.4 h 2.4 l -4.5,-10.6 h -2.1 l -4.5,10.6 h 2.4 z m 2.2,-5.5 1.4,3.4 H 104 Z"
         id="path2918" />
      <path
         class="st0"
         d="m 115,18.1 h 1.8 l 2.2,3.4 h 2.7 l -2.6,-3.8 c 1.4,-0.5 2.3,-1.8 2.2,-3.3 v 0 c 0,-0.9 -0.3,-1.8 -0.9,-2.4 -0.8,-0.8 -1.9,-1.1 -3.1,-1.1 h -4.8 v 10.5 h 2.4 v -3.3 z m 0,-5.1 h 2.3 c 1.1,0 1.8,0.5 1.8,1.5 v 0 c 0,0.9 -0.7,1.5 -1.8,1.5 H 115 Z"
         id="path2920" />
      <polygon
         class="st0"
         points="97.2,34 92,34 92,25.6 89.7,25.6 89.7,36.2 97.2,36.2 "
         id="polygon2922" />
      <path
         class="st0"
         d="m 97.9,30.9 c 0.1,3.1 2.7,5.5 5.8,5.4 2.9,-0.1 5.2,-2.5 5.4,-5.4 v 0 c -0.1,-3.1 -2.7,-5.5 -5.8,-5.4 -2.9,0.2 -5.3,2.5 -5.4,5.4 z m 2.4,0 c -0.1,-1.7 1.3,-3.2 3,-3.3 0,0 0.1,0 0.1,0 1.8,0 3.2,1.5 3.2,3.2 0,0 0,0.1 0,0.1 v 0 c 0.1,1.7 -1.3,3.2 -3,3.3 0,0 -0.1,0 -0.1,0 -1.8,0 -3.2,-1.4 -3.2,-3.2 0,-0.1 0,-0.1 0,-0.1 z"
         id="path2924" />
      <path
         class="st0"
         d="m 110.7,30.9 c -0.1,2.9 2.3,5.4 5.2,5.4 0.1,0 0.1,0 0.2,0 1.7,0.1 3.2,-0.6 4.3,-1.9 l -1.5,-1.5 c -0.7,0.8 -1.7,1.2 -2.8,1.2 -1.7,-0.1 -3.1,-1.5 -3,-3.3 0,0 0,0 0,-0.1 v 0 c -0.1,-1.7 1.2,-3.2 3,-3.3 0,0 0,0 0,0 1,0 2,0.5 2.7,1.2 l 1.5,-1.7 c -1.1,-1.1 -2.6,-1.7 -4.2,-1.6 -3,-0.1 -5.4,2.3 -5.5,5.2 0.1,0.3 0.1,0.4 0.1,0.4 z"
         id="path2926" />
      <polygon
         class="st0"
         points="122.3,25.6 122.3,36.2 124.6,36.2 124.6,33 125.8,31.7 129.1,36.2 131.8,36.2 127.3,30.1 131.6,25.6 128.8,25.6 124.6,30.2 124.6,25.6 "
         id="polygon2928" />
      <path
         class="st0"
         d="M 97.3,47.7 C 97.3,45.9 96.1,45.1 94,44.5 92.2,44 91.7,43.8 91.7,43.1 v 0 c 0,-0.5 0.5,-0.9 1.4,-0.9 1,0.1 1.9,0.4 2.7,1 L 97,41.5 c -1.1,-0.9 -2.5,-1.4 -3.9,-1.3 -2.2,0 -3.7,1.3 -3.7,3.2 v 0 c 0,2.1 1.4,2.7 3.5,3.2 1.8,0.5 2.1,0.8 2.1,1.3 v 0 c 0,0.6 -0.6,1 -1.5,1 -1.2,0 -2.3,-0.5 -3.1,-1.3 L 89,49.3 c 1.2,1.1 2.8,1.7 4.4,1.7 2.3,0 3.9,-1.2 3.9,-3.3 z"
         id="path2930" />
      <polygon
         class="st0"
         points="103,44.6 100.5,40.3 97.8,40.3 101.8,46.7 101.8,50.9 104.1,50.9 104.1,46.7 108.2,40.3 105.6,40.3 "
         id="polygon2932" />
      <path
         class="st0"
         d="m 116.7,47.8 v 0 c 0,-1.8 -1.2,-2.6 -3.3,-3.2 -1.8,-0.5 -2.3,-0.7 -2.3,-1.4 v 0 c 0,-0.5 0.5,-0.9 1.3,-0.9 1,0 1.9,0.4 2.7,1 l 1.2,-1.7 c -1.1,-0.9 -2.5,-1.4 -3.9,-1.3 -2.2,0 -3.7,1.3 -3.7,3.2 v 0 c 0,2.1 1.4,2.7 3.5,3.2 1.8,0.5 2.1,0.8 2.1,1.3 v 0 c 0,0.6 -0.6,1 -1.5,1 -1.2,0 -2.3,-0.5 -3.1,-1.3 l -1.4,1.6 c 1.2,1.1 2.8,1.7 4.5,1.7 2.3,0 3.9,-1.2 3.9,-3.2 z"
         id="path2934" />
      <polygon
         class="st0"
         points="123.2,42.5 126.4,42.5 126.4,40.3 117.7,40.3 117.7,42.5 120.9,42.5 120.9,50.9 123.2,50.9 "
         id="polygon2936" />
      <polygon
         class="st0"
         points="136.2,50.9 136.2,48.8 130.5,48.8 130.5,46.6 135.5,46.6 135.5,44.5 130.5,44.5 130.5,42.4 136.2,42.4 136.2,40.3 128.2,40.3 128.2,50.9 "
         id="polygon2938" />
      <polygon
         class="st0"
         points="140.6,44 143.5,48.5 143.6,48.5 146.5,44 146.5,50.9 148.8,50.9 148.8,40.3 146.3,40.3 143.6,44.8 140.8,40.3 138.3,40.3 138.3,50.9 140.6,50.9 "
         id="polygon2940" />
      <path
         class="st0"
         d="m 155.6,44.6 c -1.8,-0.5 -2.3,-0.7 -2.3,-1.4 v 0 c 0,-0.5 0.5,-0.9 1.4,-0.9 1,0.1 1.9,0.4 2.7,1 l 1.2,-1.7 c -1.1,-0.9 -2.5,-1.4 -3.9,-1.3 -2.2,0 -3.7,1.3 -3.7,3.2 v 0 c 0,2.1 1.4,2.7 3.5,3.2 1.8,0.5 2.1,0.8 2.1,1.3 v 0 c 0,0.6 -0.6,1 -1.5,1 -1.2,0 -2.3,-0.4 -3.1,-1.2 l -1.4,1.6 c 1.2,1.1 2.8,1.7 4.4,1.7 2.3,0 3.9,-1.2 3.9,-3.3 v 0 c 0.1,-1.9 -1.1,-2.7 -3.3,-3.2 z"
         id="path2942" />
      <path
         class="st0"
         d="m 63.9,33.2 v 0 c -0.7,0 -1.3,0.6 -1.3,1.3 0,0.7 0.6,1.3 1.3,1.3 0,0 0,0 0,0 0.7,-0.1 1.2,-0.7 1.2,-1.4 -0.1,-0.7 -0.6,-1.1 -1.2,-1.2 z"
         id="path2944" />
      <path
         class="st0"
         d="M 68.8,30 C 68.7,26.5 68,24.4 66.6,23.7 65.3,23.2 64,23 62.7,23 c -1.6,0 -2.9,0 -5,0 h -4.2 c -3.3,-0.1 -6.6,0.1 -9.9,0.5 h -0.4 c -2.1,0 -3.9,1.6 -4.2,3.7 -0.3,1.4 -0.5,2.7 -0.4,4.1 0,1.4 0.1,2.8 0.5,4.1 0.4,2 2.1,3.5 4.2,3.5 h 0.4 c 2.9,0.3 5.7,0.4 8.6,0.3 h 5.5 c 2.2,0 3.4,0 5,0 1.3,0 2.7,-0.3 3.9,-0.8 1.3,-0.7 2,-2.7 2.1,-6.3 H 84 V 30 Z M 50.2,37.1 C 48.1,37.1 46,37 43.9,36.8 h -0.4 c -1.4,-0.2 -2,-0.7 -2.3,-1.9 -0.3,-1.2 -0.4,-2.4 -0.4,-3.7 0,-1.2 0.1,-2.5 0.4,-3.7 0.3,-1.2 0.9,-1.8 2.3,-1.9 h 0.4 c 2.1,-0.2 4.2,-0.4 6.3,-0.4 1.1,1.8 1.7,3.9 1.7,6 -0.1,2.1 -0.6,4.1 -1.7,5.9 z m 7.2,0 h -4.7 c 0.9,-1.8 1.3,-3.8 1.3,-5.9 0,-2.1 -0.5,-4.1 -1.4,-6 h 0.9 3.8 c 1.4,3.9 1.4,8.1 0.1,12 z m 8.3,-0.6 c -1,0.4 -2,0.6 -3,0.5 -1,0 -2,0 -3.1,0 1.2,-3.9 1.2,-8.1 -0.1,-12 h 1.5 1.6 c 1,0 2,0.1 3,0.5 0,0 1,0.6 1.1,5.4 0.1,4.8 -1,5.6 -1,5.6 z"
         id="path2946" />
      <path
         class="st1"
         d="m 57.7,39.2 h -1.3 c -2.9,5.9 -9,10 -16.1,10.1 -9.9,0 -18,-8.1 -18,-18 0,-9.9 8.1,-18 18,-18 7,0 13,4 16,9.7 h 1.4 c 0.4,0 0.7,0 1.1,0 -3.2,-7 -10.2,-12 -18.4,-12 0,0 0,0 0,0 -11.1,0 -20.2,9 -20.2,20.2 0,11.1 9,20.2 20.2,20.2 8.3,0 15.4,-5 18.5,-12.2 -0.4,0 -0.8,0 -1.2,0 z"
         id="path2948" />
      <path
         class="st1"
         d="m 48.6,39.2 c -2.1,2.2 -5,3.5 -8.3,3.5 -6.4,0 -11.5,-5.2 -11.5,-11.5 0,-6.4 5.2,-11.5 11.5,-11.5 3.2,0 6.1,1.3 8.2,3.4 0.9,0 1.8,-0.1 2.8,-0.1 -2.5,-3.3 -6.4,-5.4 -10.9,-5.4 0,0 0,0 0,0 -7.5,0 -13.6,6.1 -13.6,13.7 0,7.5 6.1,13.6 13.7,13.6 4.5,0 8.6,-2.2 11,-5.7 -1,0 -2,0 -2.9,0 z"
         id="path2950" />
    </g>
  </g>
  <style
     type="text/css"
     id="style833">
	.st0{fill:#FFFFFF;}
	.st1{fill:#33CC00;}
</style>
  <style
     type="text/css"
     id="style2878">
	.st0{fill:#FFFFFF;}
	.st1{fill:#33CC00;}
</style>
</svg>
