<?xml version="1.0" encoding="UTF-8"?>
<svg xmlns="http://www.w3.org/2000/svg" width="179" height="179" viewBox="0 0 179 179" fill="none">
  <g clip-path="url(#clip0_19_118)">
    <rect width="178.162" height="178.162" fill="white"></rect>
    <path d="M178.162 0H0V178.162H178.162V0Z" fill="black"></path>
    <path d="M142.375 105.387V116.822H156.277C154.828 120.429 152.886 122.864 150.482 124.189C148.078 125.484 145.581 126.162 142.992 126.162C138.214 126.162 134.145 124.405 130.755 120.922C127.364 117.439 125.699 113.154 125.699 108.13C125.699 103.414 127.395 99.2837 130.755 95.8007C134.145 92.3174 138.121 90.5913 142.714 90.5913C145.55 90.5913 148.263 91.3312 150.852 92.8415C153.441 94.3518 155.629 96.602 157.386 99.6536L165.801 91.7935C160.253 82.793 152.331 78.2617 142.036 78.2617C133.96 78.2617 127.056 81.1593 121.322 86.9542C117.439 90.8995 114.88 95.369 113.617 100.393C112.384 95.2766 109.825 90.7763 105.941 86.8926C100.239 81.1901 93.2111 78.3235 84.8887 78.3235C75.9806 78.3235 68.8294 81.3133 63.4044 87.324C60.0137 91.0846 57.6711 95.1533 56.4074 99.4994C55.2052 94.6909 52.9552 90.5605 49.6261 87.1082C44.3861 81.7758 37.5122 79.0633 28.9742 79.0633H8.9386V137.659H27.8952C36.8341 137.659 43.9853 135.009 49.3795 129.676C52.8934 126.193 55.2668 121.939 56.469 116.977C57.7637 121.847 60.1679 126.07 63.6202 129.676C69.1685 135.44 76.2888 138.307 84.9503 138.307C88.8648 138.307 93.2727 137.413 98.2046 135.594L104.801 143.516L113.339 138.122L106.126 129.799C109.918 125.792 112.414 121.169 113.617 115.929C114.849 121.138 117.315 125.731 121.076 129.676C126.655 135.533 133.498 138.461 141.574 138.461C146.043 138.461 150.451 137.413 154.859 135.348C159.236 133.282 162.781 130.015 165.462 125.546C168.144 121.076 169.5 116.884 169.5 112.97V105.387H142.375ZM39.4542 122.093C36.1252 124.929 31.8716 126.316 26.6624 126.316H21.6688V90.129H26.3233C29.0974 90.129 31.9948 90.6531 35.0464 91.7011C38.0979 92.7491 40.4406 94.7527 42.0435 97.7116C43.6462 100.671 44.4478 104.061 44.4478 107.914C44.4786 114.541 42.814 119.258 39.4542 122.093ZM97.7421 119.874L92.0398 113.185L83.7172 118.579L89.9128 125.885C87.632 126.255 85.6284 126.409 83.9639 126.409C79.4944 126.409 75.8263 124.683 72.8982 121.23C69.9698 117.778 68.5211 113.339 68.5211 107.976C68.5211 102.674 70.0314 98.3589 73.083 95.0299C76.1346 91.7011 80.0493 90.0057 84.8271 90.0057C89.7588 90.0057 93.7352 91.7011 96.7249 95.0607C99.7149 98.4206 101.194 102.952 101.194 108.623C101.225 113.586 100.054 117.316 97.7421 119.874Z" fill="white"></path>
    <path d="M15.5044 149.311H18.4943V164.754H15.5661V163.058H15.5044C14.6413 164.291 13.5625 164.908 12.2987 164.908C11.1582 164.908 10.1719 164.415 9.37046 163.428C8.56903 162.442 8.16833 161.209 8.16833 159.791C8.16833 158.373 8.59986 157.14 9.43212 156.123C10.2644 155.106 11.2507 154.613 12.422 154.613C13.0693 154.613 13.655 154.736 14.0865 154.982C14.5489 155.229 15.0112 155.63 15.4736 156.154V149.311H15.5044ZM13.3159 157.51C12.8227 157.51 12.3604 157.726 11.9597 158.188C11.5281 158.65 11.3124 159.236 11.3124 160.007C11.3124 160.623 11.4973 161.147 11.8672 161.579C12.2371 162.01 12.6994 162.226 13.2234 162.226C13.8399 162.226 14.3947 161.98 14.7955 161.517C15.227 161.055 15.4428 160.469 15.4428 159.791C15.4428 159.205 15.227 158.65 14.8263 158.219C14.4256 157.757 13.9324 157.51 13.3159 157.51Z" fill="white"></path>
    <path d="M19.8199 154.828H22.8407V159.606C22.8407 160.284 23.0256 160.87 23.3646 161.332C23.7037 161.795 24.1352 162.01 24.6593 162.01C25.2142 162.01 25.6765 161.795 26.0463 161.332C26.4162 160.901 26.6012 160.346 26.6012 159.668V154.828H29.622V160.623C29.622 161.856 29.1595 162.873 28.204 163.706C27.2794 164.538 26.108 164.939 24.6901 164.939C23.2106 164.939 22.0392 164.507 21.1454 163.675C20.2514 162.843 19.8199 161.733 19.8199 160.346V154.828Z" fill="white"></path>
    <path d="M30.7621 151.376H33.7212V154.798H35.1391V157.51H33.7212V164.754H30.7621V157.51H28.6353V154.798H30.7621V151.376Z" fill="white"></path>
    <path d="M42.4752 161.301V164.261C41.458 164.723 40.595 164.97 39.9477 164.97C38.4374 164.97 37.2044 164.476 36.1872 163.49C35.17 162.504 34.6769 161.271 34.6769 159.791C34.6769 158.311 35.1392 157.079 36.0639 156.092C36.9885 155.106 38.1599 154.613 39.6086 154.613C40.595 154.613 41.5814 154.828 42.506 155.291V158.096C41.643 157.695 40.8417 157.479 40.1327 157.479C39.4546 157.479 38.9305 157.695 38.5298 158.096C38.1291 158.496 37.9133 159.02 37.9133 159.699C37.9133 160.346 38.0983 160.901 38.5298 161.301C38.9305 161.702 39.4544 161.918 40.1017 161.918C40.7182 161.887 41.5198 161.671 42.4752 161.301Z" fill="white"></path>
    <path d="M43.3997 149.311H46.4202V155.969C46.9751 155.506 47.4682 155.167 47.9307 154.952C48.393 154.736 48.9171 154.643 49.5334 154.643C50.5816 154.643 51.383 155.013 51.9995 155.784C52.585 156.524 52.8933 157.572 52.8933 158.928V164.784H49.9035V159.452C49.9035 158.805 49.7493 158.281 49.4102 157.849C49.0711 157.418 48.6705 157.202 48.2082 157.202C47.5917 157.202 47.16 157.448 46.8827 157.942C46.6053 158.435 46.4511 159.236 46.4511 160.284V164.754H43.4305V149.311H43.3997Z" fill="white"></path>
    <path d="M65.347 169.131V162.966H65.2854C64.8229 163.675 64.3606 164.168 63.8673 164.476C63.405 164.784 62.8193 164.939 62.1412 164.939C60.9392 164.939 59.9528 164.445 59.1206 163.49C58.2883 162.504 57.8876 161.332 57.8876 159.914C57.8876 158.435 58.3191 157.202 59.1822 156.185C60.0452 155.167 61.0624 154.674 62.2954 154.674C62.9735 154.674 63.5283 154.828 63.9907 155.075C64.453 155.352 64.8845 155.784 65.2854 156.4H65.347V154.859H68.306V169.161H65.347V169.131ZM65.2544 159.945C65.2544 159.329 65.0387 158.805 64.6381 158.311C64.2374 157.818 63.7441 157.572 63.251 157.572C62.6345 157.572 62.1104 157.818 61.7097 158.281C61.309 158.743 61.0932 159.329 61.0932 160.038C61.0932 160.685 61.2782 161.209 61.6481 161.64C62.018 162.072 62.4803 162.288 63.0352 162.288C63.6209 162.288 64.1448 162.041 64.5763 161.579C65.0387 161.116 65.2544 160.562 65.2544 159.945Z" fill="white"></path>
    <path d="M69.6307 154.828H72.6515V159.606C72.6515 160.284 72.8365 160.87 73.1756 161.332C73.5147 161.795 73.9462 162.01 74.4701 162.01C75.025 162.01 75.4873 161.795 75.8571 161.332C76.227 160.901 76.412 160.346 76.412 159.668V154.828H79.4328V160.623C79.4328 161.856 78.9703 162.873 78.0149 163.706C77.0902 164.538 75.9189 164.939 74.5011 164.939C73.0214 164.939 71.8502 164.507 70.9562 163.675C70.0624 162.843 69.6307 161.733 69.6307 160.346V154.828Z" fill="white"></path>
    <path d="M87.1695 164.754V163.058H87.1079C86.6456 163.736 86.1833 164.199 85.7208 164.507C85.2585 164.815 84.6728 164.939 83.9639 164.939C82.7927 164.939 81.8063 164.445 80.9739 163.428C80.1418 162.411 79.7411 161.209 79.7411 159.76C79.7411 158.342 80.1726 157.14 81.0357 156.123C81.8987 155.106 82.9467 154.613 84.1489 154.613C84.7344 154.613 85.2277 154.736 85.69 154.983C86.1525 155.229 86.6148 155.63 87.1387 156.185V154.798H90.0979V164.754H87.1695ZM85.0119 157.572C84.4262 157.572 83.9331 157.818 83.5324 158.281C83.1317 158.743 82.9467 159.329 82.9467 160.038C82.9467 160.716 83.1317 161.24 83.5016 161.64C83.8715 162.041 84.3646 162.257 84.9811 162.257C85.5668 162.257 86.0599 162.01 86.4914 161.548C86.9231 161.086 87.1079 160.531 87.1079 159.853C87.1079 159.236 86.8922 158.712 86.4914 158.25C86.0599 157.788 85.5668 157.572 85.0119 157.572Z" fill="white"></path>
    <path d="M91.5775 149.311H94.5367V164.754H91.5775V149.311Z" fill="white"></path>
    <path d="M95.677 151.099C95.677 150.606 95.862 150.174 96.2319 149.804C96.6018 149.434 97.0333 149.249 97.5264 149.249C98.0505 149.249 98.4819 149.434 98.8518 149.804C99.2217 150.174 99.4067 150.606 99.4067 151.099C99.4067 151.623 99.2217 152.054 98.8518 152.393C98.4819 152.763 98.0505 152.948 97.5264 152.948C97.0025 152.948 96.571 152.763 96.2319 152.393C95.862 152.054 95.677 151.623 95.677 151.099ZM96.0777 154.798H99.0368V164.754H96.0777V154.798Z" fill="white"></path>
    <path d="M100.424 151.376H103.383V154.798H104.801L105.787 157.51H103.383V164.754H100.424V157.51H98.2968V154.798H100.424V151.376Z" fill="white"></path>
    <path d="M104.123 154.828H107.297L110.164 160.623L112.723 154.828H115.743L109.548 169.131H106.465L108.685 164.045L104.123 154.828Z" fill="white"></path>
    <path d="M127.179 164.168V162.997C126.285 164.137 125.268 164.692 124.097 164.692C122.833 164.692 121.785 164.199 120.953 163.243C120.12 162.288 119.689 161.055 119.689 159.637C119.689 158.219 120.12 157.048 120.984 156.061C121.847 155.075 122.895 154.582 124.128 154.582C125.176 154.582 126.162 155.137 127.148 156.185V154.798H130.077V164.877C130.077 165.432 129.892 166.079 129.553 166.788C129.214 167.497 128.597 168.052 127.765 168.391C126.933 168.73 125.946 168.915 124.837 168.915C123.449 168.915 122.34 168.668 121.508 168.144C120.675 167.62 120.09 166.726 119.72 165.493H123.049C123.696 166.387 124.405 166.85 125.145 166.85C125.73 166.85 126.224 166.603 126.593 166.11C126.994 165.617 127.179 164.969 127.179 164.168ZM122.864 159.698C122.864 160.223 123.08 160.716 123.542 161.178C123.973 161.671 124.497 161.887 125.114 161.887C125.7 161.887 126.193 161.671 126.593 161.209C126.994 160.746 127.21 160.192 127.21 159.514C127.21 158.835 127.025 158.281 126.624 157.849C126.224 157.418 125.73 157.202 125.114 157.202C124.497 157.202 123.973 157.418 123.542 157.88C123.08 158.373 122.864 158.959 122.864 159.698Z" fill="white"></path>
    <path d="M134.238 154.798V156.277H134.3C134.577 155.784 134.947 155.383 135.317 155.106C135.718 154.828 136.057 154.674 136.396 154.674C136.581 154.674 136.766 154.674 136.951 154.705V157.942C136.704 157.911 136.457 157.88 136.211 157.88C135.594 157.88 135.132 158.096 134.793 158.527C134.454 158.959 134.3 159.544 134.3 160.315V164.754H131.279V154.798H134.238Z" fill="white"></path>
    <path d="M136.92 159.791C136.92 158.25 137.413 157.017 138.4 156.031C139.386 155.044 140.65 154.582 142.191 154.582C143.609 154.582 144.811 155.075 145.797 156.061C146.753 157.048 147.246 158.281 147.246 159.76C147.246 161.271 146.753 162.503 145.797 163.49C144.842 164.476 143.609 164.969 142.16 164.969C140.526 164.969 139.232 164.445 138.338 163.397C137.382 162.349 136.92 161.147 136.92 159.791ZM144.287 159.791C144.287 159.113 144.071 158.527 143.64 158.034C143.208 157.541 142.684 157.294 142.099 157.294C141.482 157.294 140.958 157.541 140.526 158.003C140.095 158.466 139.879 159.02 139.879 159.698C139.879 160.407 140.095 161.024 140.526 161.517C140.958 162.01 141.482 162.257 142.099 162.257C142.684 162.257 143.208 162.01 143.64 161.517C144.071 161.024 144.287 160.469 144.287 159.791Z" fill="white"></path>
    <path d="M148.109 154.828H151.129V159.606C151.129 160.284 151.314 160.87 151.653 161.332C151.992 161.795 152.424 162.01 152.948 162.01C153.503 162.01 153.965 161.795 154.335 161.332C154.705 160.901 154.89 160.346 154.89 159.668V154.828H157.911V160.623C157.911 161.856 157.448 162.873 156.493 163.706C155.568 164.538 154.397 164.939 152.979 164.939C151.499 164.939 150.297 164.507 149.434 163.675C148.54 162.843 148.109 161.733 148.109 160.346V154.828Z" fill="white"></path>
    <path d="M162.072 154.828V156.277H162.134C162.565 155.692 163.028 155.26 163.49 155.013C163.953 154.767 164.507 154.613 165.186 154.613C166.388 154.613 167.374 155.137 168.237 156.185C169.069 157.233 169.501 158.496 169.501 159.976C169.501 161.332 169.1 162.504 168.268 163.49C167.467 164.476 166.48 164.939 165.371 164.939C164.692 164.939 164.107 164.784 163.644 164.507C163.182 164.23 162.689 163.767 162.196 163.151H162.134V169.131H159.113V154.828H162.072ZM166.357 159.945C166.357 159.298 166.141 158.743 165.74 158.281C165.309 157.818 164.816 157.572 164.23 157.572C163.644 157.572 163.182 157.788 162.781 158.25C162.381 158.712 162.165 159.267 162.165 159.945C162.165 160.592 162.381 161.147 162.781 161.579C163.213 162.041 163.706 162.257 164.323 162.257C164.908 162.257 165.401 162.041 165.771 161.61C166.172 161.178 166.357 160.623 166.357 159.945Z" fill="white"></path>
  </g>
  <defs>
    <clipPath id="clip0_19_118">
      <rect width="178.162" height="178.162" fill="white"></rect>
    </clipPath>
  </defs>
</svg>
