<?xml version="1.0" encoding="UTF-8"?>
<svg xmlns="http://www.w3.org/2000/svg" xmlns:xlink="http://www.w3.org/1999/xlink" width="500px" height="500px" viewBox="0 0 500 500" version="1.1">
  <title>eyye-logo</title>
  <desc>Created with Sketch.</desc>
  <defs>
    <polygon id="path-1" points="0.107427093 0.875545306 499.673848 0.875545306 499.673848 439.684558 0.107427093 439.684558"></polygon>
  </defs>
  <g id="eyye-logo" stroke="none" stroke-width="1" fill="none" fill-rule="evenodd">
    <g id="EYYE---logo">
      <path d="M190.557759,199.711083 L178.756892,199.711083 L178.756892,236.827056 L198.994366,236.827056 C227.005981,236.827056 250.967594,230.755418 269.197972,176.11067 C278.980999,146.740592 308.668476,59.0163125 326.898854,0.635308888 L281.342604,0.635308888 L247.601545,116.051835 L202.043505,0.635308888 L156.487256,0.635308888 L227.349748,169.351103 C218.571164,196.687771 202.043505,199.711083 190.557759,199.711083" id="Fill-1" fill="#0B0B09"></path>
      <path d="M306.331937,257.859799 L271.826355,375.842209 L225.271033,257.859799 L178.701388,257.859799 L251.139477,430.324356 C242.165734,458.266759 225.271033,461.35797 213.529252,461.35797 L201.46698,461.35797 L201.46698,499.299458 L222.16639,499.299458 C250.788549,499.299458 275.280136,493.093807 293.902622,437.234017 C303.914827,407.211747 334.264771,317.539826 352.899791,257.859799 L306.331937,257.859799" id="Fill-2" fill="#0B0B09"></path>
      <g id="Group-6" transform="translate(0.000000, 0.774681)">
        <mask id="mask-2" fill="white">
          <use xlink:href="#path-1"></use>
        </mask>
        <g id="Clip-4"></g>
        <path d="M437.939078,297.578194 C446.900288,297.578194 454.146246,298.955838 459.664417,302.072065 L459.664417,332.430258 L388.955905,332.430258 C395.500005,312.407073 415.159163,297.578194 437.939078,297.578194 Z M469.325694,387.251902 C469.325694,387.251902 460.015346,398.98957 437.939078,398.98957 C415.511882,398.98957 396.200072,384.864701 389.292509,365.175653 L498.988105,365.175653 L498.988105,280.699825 C482.780937,265.844144 461.728808,256.884993 437.939078,256.884993 C387.913862,256.884993 347.216898,297.578194 347.216898,348.29907 C347.216898,398.653646 387.913862,439.684558 437.939078,439.684558 C477.260975,439.684558 499.673848,414.858382 499.673848,414.858382 L469.325694,387.251902 L469.325694,387.251902 Z" id="Fill-3" fill="#0B0B09" mask="url(#mask-2)"></path>
        <path d="M88.731198,40.6753334 C97.4936679,40.6753334 104.582066,42.0208142 109.980277,45.0691413 L109.980277,74.762635 L40.8222954,74.762635 C47.2231597,55.1790094 66.4651425,40.6753334 88.731198,40.6753334 Z M88.731198,139.860322 C66.7945856,139.860322 47.9089026,126.044574 41.1517385,106.789725 L148.439176,106.789725 L148.439176,24.1668373 C132.588309,9.63635885 111.998116,0.875545306 88.731198,0.875545306 C39.8053189,0.875545306 0,40.6753334 0,90.2812289 C0,139.531546 39.8053189,179.66011 88.731198,179.66011 C127.190097,179.66011 149.112386,155.378916 149.112386,155.378916 L119.42849,128.378171 C119.42849,128.378171 110.322253,139.860322 88.731198,139.860322 L88.731198,139.860322 Z" id="Fill-5" fill="#0B0B09" mask="url(#mask-2)"></path>
      </g>
    </g>
  </g>
</svg>
