<svg id="b024ed67-b495-409c-9cad-1e4c246ddbe3" data-name="Laag 1" xmlns="http://www.w3.org/2000/svg" viewBox="0 0 990 260"><defs><style>.b0ce0d7a-6cff-4420-afb1-09f60bbbf72e{fill:#0046ba;}.e66ea296-4500-4906-bff7-6bcbc71ca571{fill:#e6004c;}</style></defs><path class="b0ce0d7a-6cff-4420-afb1-09f60bbbf72e" d="M138.7,175.82l-1.94-2a60.42,60.42,0,1,1,0-86.62l2-2A71.09,71.09,0,0,0,128.39,75L133,61.25l-13.49-7.82L110,64.32A71.68,71.68,0,0,0,94.8,60.24L92,46H76.39L73.56,60.23a70.12,70.12,0,0,0-15.2,4.08L48.84,53.43l-13.5,7.82L40,75A69.85,69.85,0,0,0,28.85,86.13L15.17,81.49,7.38,95l10.86,9.57a71.66,71.66,0,0,0-4.07,15.23L0,122.68v15.63l14.16,2.85a71,71,0,0,0,4.06,15.24L7.38,166l7.79,13.55,13.67-4.65A70.78,70.78,0,0,0,40,186l-4.63,13.73,13.5,7.81,9.54-10.89a70.58,70.58,0,0,0,15.17,4.08L76.39,215H92l2.83-14.21A70.58,70.58,0,0,0,110,196.69l9.53,10.87L133,199.75,128.39,186A70.62,70.62,0,0,0,138.7,175.82Z"/><path class="b0ce0d7a-6cff-4420-afb1-09f60bbbf72e" d="M186.19,208.32h27.43v9.41H195.78v9h17.84v9.41H195.78v13.2h17.84v9.41H186.19Z"/><path class="b0ce0d7a-6cff-4420-afb1-09f60bbbf72e" d="M227.19,208.32h9.16l21.55,33.14V208.32h9.59v50.42h-9.24l-21.48-33.07v33.07h-9.58Z"/><path class="b0ce0d7a-6cff-4420-afb1-09f60bbbf72e" d="M331.5,233.11c0,6.81-1,12.5-6,18.47-4.9,5.75-11,8.42-19,8.42-16.72,0-27.22-12.43-27.22-26.75s11.06-26.12,26.94-26.12c9.94,0,16.3,3.51,21.69,9.41l-6.72,6.67c-4.26-4.49-8.95-6.88-14.9-6.88A17,17,0,0,0,289,233.39c0,9.76,7.91,17.41,18,17.41,6.65,0,11.06-2.74,13.78-8.56H306.17v-9.13Z"/><path class="b0ce0d7a-6cff-4420-afb1-09f60bbbf72e" d="M344.3,208.32h9.58v50.42H344.3Z"/><path class="b0ce0d7a-6cff-4420-afb1-09f60bbbf72e" d="M369.27,208.32h9.16L400,241.46V208.32h9.59v50.42h-9.24l-21.48-33.07v33.07h-9.58Z"/><path class="b0ce0d7a-6cff-4420-afb1-09f60bbbf72e" d="M425.44,208.32h27.43v9.41H435v9h17.84v9.41H435v13.2h17.84v9.41H425.44Z"/><path class="b0ce0d7a-6cff-4420-afb1-09f60bbbf72e" d="M466.51,208.32h27.42v9.41H476.09v9h17.84v9.41H476.09v13.2h17.84v9.41H466.51Z"/><path class="b0ce0d7a-6cff-4420-afb1-09f60bbbf72e" d="M508.13,208.32h11.68c6.37,0,10.85.78,14.21,4.08a14.63,14.63,0,0,1,4.05,10.53c0,6.6-3.28,11.09-9.65,13.41l11.89,22.4H529.89l-11.26-21.35h-.91v21.35h-9.59Zm9.59,19.73h4.4c4.34,0,6.58-1.75,6.58-5.19s-2.31-5.13-6.86-5.13h-4.12Z"/><path class="b0ce0d7a-6cff-4420-afb1-09f60bbbf72e" d="M551.36,208.32H561v50.42h-9.59Z"/><path class="b0ce0d7a-6cff-4420-afb1-09f60bbbf72e" d="M576.34,208.32h9.16l21.55,33.14V208.32h9.59v50.42H607.4l-21.48-33.07v33.07h-9.58Z"/><path class="b0ce0d7a-6cff-4420-afb1-09f60bbbf72e" d="M681.34,233.11c0,6.81-1,12.5-6,18.47-4.9,5.75-11,8.42-19,8.42-16.72,0-27.22-12.43-27.22-26.75s11.06-26.12,26.94-26.12c9.93,0,16.3,3.51,21.69,9.41l-6.72,6.67c-4.27-4.49-9-6.88-14.9-6.88a17,17,0,0,0-17.35,17.06c0,9.76,7.9,17.41,18,17.41,6.64,0,11.05-2.74,13.78-8.56H656v-9.13Z"/><path class="b0ce0d7a-6cff-4420-afb1-09f60bbbf72e" d="M719.12,258.74V208.32h9.16c5.25,0,9.52.57,12.67,2.46a12.16,12.16,0,0,1,6,10.53c0,4-1.82,7-5.25,9.69,5.88,2.81,8.82,6.88,8.82,13a13.69,13.69,0,0,1-4.34,10.39c-3.36,3.3-7,4.36-12.1,4.36Zm9.58-41.29v10.6h2.1c4.48,0,6.79-2,6.79-5.47,0-3.23-2.17-5.13-6.44-5.13Zm0,19.17v13h3.22c6,0,9.24-1.69,9.24-6s-3.36-7-10.08-7Z"/><path class="b0ce0d7a-6cff-4420-afb1-09f60bbbf72e" d="M768.51,254.31a5.34,5.34,0,0,1-5.32,5.41,5.45,5.45,0,0,1-5.39-5.41,5.36,5.36,0,0,1,10.71,0Z"/><path class="b0ce0d7a-6cff-4420-afb1-09f60bbbf72e" d="M766.62,208.32h9.86l12.59,35.81L802,208.32h9.79l-18.12,50.42h-9.16Z"/><path class="b0ce0d7a-6cff-4420-afb1-09f60bbbf72e" d="M821.39,254.31a5.34,5.34,0,0,1-5.31,5.41,5.45,5.45,0,0,1-5.39-5.41,5.35,5.35,0,0,1,10.7,0Z"/><path class="e66ea296-4500-4906-bff7-6bcbc71ca571" d="M138.34,129.73c0,11.48-1.65,21.06-10.14,31.12-8.25,9.71-18.51,14.2-32,14.2-28.18,0-45.87-20.94-45.87-45.09,0-23.9,18.63-44,45.4-44,16.75,0,27.48,5.92,36.56,15.86L121,113c-7.19-7.57-15.1-11.6-25.12-11.6-17,0-29.24,13-29.24,28.76,0,16.45,13.32,29.35,30.3,29.35,11.2,0,18.63-4.62,23.23-14.44H95.65V129.73Z"/><path class="e66ea296-4500-4906-bff7-6bcbc71ca571" d="M161.34,118c2.95-6.51,8-9.58,13.21-9.58a14.78,14.78,0,0,1,6.84,1.65l-4.84,13.49a11.06,11.06,0,0,0-4.6-1.3c-4.48,0-8,5.21-8.37,14.44-.12,3.43-.12,7.34-.12,10.77v25.44H147.78V110.08h13.56Z"/><path class="e66ea296-4500-4906-bff7-6bcbc71ca571" d="M249.78,141.44c0,18.23-14,33.14-33.13,33.14-18.16,0-32.55-14.56-32.55-33a32.84,32.84,0,1,1,65.68-.12Zm-49.88,0c0,10.65,6.72,18.23,16.87,18.23,9.67,0,17.21-7.1,17.21-18.11,0-10.65-7-18.22-17.21-18.22C207,123.34,199.9,131,199.9,141.44Z"/><path class="e66ea296-4500-4906-bff7-6bcbc71ca571" d="M325.26,141.44a32.69,32.69,0,0,1-33.14,33.14c-18.16,0-32.55-14.56-32.55-33a32.85,32.85,0,1,1,65.69-.12Zm-49.88,0c0,10.65,6.72,18.23,16.86,18.23,9.67,0,17.21-7.1,17.21-18.11,0-10.65-6.95-18.22-17.21-18.22C282.45,123.34,275.38,131,275.38,141.44Z"/><path class="e66ea296-4500-4906-bff7-6bcbc71ca571" d="M339.88,86.89h15.69v23.19h9.31v13.49h-9.31v49.35H339.88V123.57h-8V110.08h8Z"/><path class="e66ea296-4500-4906-bff7-6bcbc71ca571" d="M385.87,145.7c-10-5.08-15.09-11.24-15.09-19.17,0-9.82,8.25-18.1,20.28-18.1a25.46,25.46,0,0,1,20.64,10.41L402,128.66c-3.54-3.55-7.08-5.8-10.85-5.8-3.19,0-5.66,1.31-5.66,3.79s2.24,3.43,5.66,5.21l5.78,3c10.37,5.32,15.92,10.77,15.92,20.11,0,11.25-8.85,19.65-22.53,19.65a26.41,26.41,0,0,1-21.93-10.77l9.67-10.65c3.65,4.26,9,7.34,13.09,7.34,3.89,0,6.95-2.25,6.95-5.09s-2.59-4.74-6.95-7Z"/><path class="e66ea296-4500-4906-bff7-6bcbc71ca571" d="M415.35,110.08H430.8l12.5,35.74,13.56-35.74h9.43l13.33,35.27,12.62-35.27h15.45l-22.76,62.84h-10l-13.32-35.85-13.8,35.85H438Z"/><path class="e66ea296-4500-4906-bff7-6bcbc71ca571" d="M560,166.3c-5.54,5.44-11.43,8.28-19.33,8.28-15.92,0-29.84-13.73-29.84-33,0-19.64,13.21-33.13,29.48-33.13,7.55,0,14,2.84,19.69,8.52v-6.87h15.69v62.84H560Zm-33.37-24.86c0,10.77,7.08,18.7,16.87,18.7s17.21-7.34,17.21-18.81c0-11-7.31-18.47-17.21-18.47C533.16,122.86,526.67,131.15,526.67,141.44Z"/><path class="e66ea296-4500-4906-bff7-6bcbc71ca571" d="M653.56,163.93c0,12.19-2.36,20.35-9.55,26.51-5.66,4.73-13.21,7-22.76,7-17.22,0-28.19-6.75-32.43-19.88h17.33c3.19,3.79,7.9,5.44,14.51,5.44,5.78,0,10.49-1.54,13.32-4.14,3.78-3.55,3.89-7.81,3.89-13.73a25.15,25.15,0,0,1-19,7.81c-16.86,0-30.07-13.49-30.07-32.3,0-19.41,13.32-32.19,29.24-32.19,7.79,0,13.92,3,19.81,8.52v-6.87h15.69Zm-48.94-23.2c0,10.42,7.43,17.76,17.22,17.76s16.86-7,16.86-17.64c0-10.18-6.72-18-17.1-18S604.62,131,604.62,140.73Z"/><path class="e66ea296-4500-4906-bff7-6bcbc71ca571" d="M727.5,160.73c-6.72,9.59-15.57,13.85-28.78,13.85-19.93,0-32.78-14.67-32.78-33.14,0-17.16,12.38-33,32.55-33,19.81,0,33.25,14.2,33.25,34.08,0,1.42-.12,2.13-.12,3.55H681.15c1.54,9.35,8.61,14.56,17.57,14.56,6.73,0,11.21-1.9,15.57-6.16Zm-11.56-27.1c-2.12-7.33-8.84-11.83-17.22-11.83-7.78,0-13.79,3.9-16.86,11.83Z"/><path class="e66ea296-4500-4906-bff7-6bcbc71ca571" d="M754.15,118c3-6.51,8-9.58,13.21-9.58a14.78,14.78,0,0,1,6.84,1.65l-4.84,13.49a11.06,11.06,0,0,0-4.6-1.3c-4.48,0-8,5.21-8.37,14.44-.12,3.43-.12,7.34-.12,10.77v25.44H740.59V110.08h13.56Z"/><path class="e66ea296-4500-4906-bff7-6bcbc71ca571" d="M794.48,145.7c-10-5.08-15.09-11.24-15.09-19.17,0-9.82,8.25-18.1,20.28-18.1a25.47,25.47,0,0,1,20.64,10.41l-9.67,9.82c-3.54-3.55-7.08-5.8-10.85-5.8-3.19,0-5.66,1.31-5.66,3.79s2.24,3.43,5.66,5.21l5.77,3c10.38,5.32,15.92,10.77,15.92,20.11,0,11.25-8.84,19.65-22.52,19.65A26.41,26.41,0,0,1,777,163.81l9.67-10.65c3.65,4.26,9,7.34,13.09,7.34,3.89,0,7-2.25,7-5.09s-2.59-4.74-7-7Z"/><path class="e66ea296-4500-4906-bff7-6bcbc71ca571" d="M417.24,83c-8.61,5.09-16.63,7.81-24.76,7.81-12.74,0-21.82-7.93-21.82-20.24,0-9.82,4.95-17.4,15-25.21-5.31-7.21-8-14-8-19.4,0-9.12,7.9-18.58,20.63-18.58,13,0,20.64,9.58,20.64,18.34,0,8.28-5.42,14.2-13.68,22.37,4.25,5,8.37,10.29,13.21,15.14,2.24-1.65,5.54-4.49,9.43-7.81l9.55,11c-3.06,3-6.13,5.56-8.6,7.93l13.56,14.44H422.78Zm-23-25.68c-5.54,4.61-8.6,8.75-8.6,12.3,0,3,2.94,6.75,8.25,6.75,4.72,0,8.61-2.13,12.85-4.62A168.32,168.32,0,0,1,394.24,57.28ZM403.56,27a5,5,0,0,0-5.19-5.21,5.54,5.54,0,0,0-5.31,5.33c0,2.6,1.54,6.27,4.13,9.59C401.08,33.25,403.56,30.18,403.56,27Z"/><path class="e66ea296-4500-4906-bff7-6bcbc71ca571" d="M479.39,25.92h16l15.81,37,15.8-37H543L516.3,88.76H506.16Z"/><path class="e66ea296-4500-4906-bff7-6bcbc71ca571" d="M594.36,82.13c-5.54,5.44-11.44,8.28-19.34,8.28-15.92,0-29.83-13.73-29.83-33,0-19.65,13.21-33.14,29.48-33.14,7.55,0,14,2.84,19.69,8.52V25.92h15.69V88.76H594.36ZM561,57.28C561,68.05,568.07,76,577.85,76s17.22-7.33,17.22-18.81c0-11-7.31-18.46-17.22-18.46C567.48,38.7,561,47,561,57.28Z"/><path class="e66ea296-4500-4906-bff7-6bcbc71ca571" d="M641.53,32.31c6-5.09,11.56-8,18.52-8,11.67,0,21.46,8.05,21.46,21.54v43H665.83V59.05c0-12.42-1.07-20.35-10.62-20.35a12.3,12.3,0,0,0-10.61,6c-3.18,5.09-3.07,10.77-3.07,17.28V88.76H625.85V25.92h15.68Z"/><path class="e66ea296-4500-4906-bff7-6bcbc71ca571" d="M731.51,3.79h16.16v32H776.2V3.79h16.16v85H776.2V51.6H747.67V88.76H731.51Z"/><path class="e66ea296-4500-4906-bff7-6bcbc71ca571" d="M866.18,76.57c-6.72,9.58-15.57,13.84-28.77,13.84-19.93,0-32.79-14.67-32.79-33.13,0-17.16,12.39-33,32.55-33,19.81,0,33.26,14.2,33.26,34.08,0,1.42-.12,2.13-.12,3.55H819.84c1.53,9.35,8.6,14.56,17.57,14.56,6.72,0,11.2-1.9,15.56-6.16Zm-11.56-27.1c-2.12-7.34-8.84-11.84-17.21-11.84-7.79,0-13.8,3.91-16.87,11.84Z"/><path class="e66ea296-4500-4906-bff7-6bcbc71ca571" d="M899.2,10.41a10,10,0,0,1-10,10.06c-5.78,0-10-5.09-10-10.88a9.79,9.79,0,0,1,10-9.59A10.18,10.18,0,0,1,899.2,10.41ZM881.39,25.92h15.69V88.76H881.39Z"/><path class="e66ea296-4500-4906-bff7-6bcbc71ca571" d="M923.73,61.54c-10-5.09-15.1-11.24-15.1-19.17,0-9.83,8.26-18.11,20.29-18.11a25.45,25.45,0,0,1,20.63,10.41l-9.67,9.83c-3.53-3.55-7.07-5.8-10.84-5.8-3.19,0-5.67,1.3-5.67,3.78s2.25,3.44,5.67,5.21l5.77,3c10.38,5.33,15.92,10.77,15.92,20.12,0,11.24-8.84,19.64-22.52,19.64a26.41,26.41,0,0,1-21.93-10.77L916,69c3.65,4.26,9,7.34,13.09,7.34,3.89,0,7-2.25,7-5.09s-2.59-4.73-7-7Z"/><path class="e66ea296-4500-4906-bff7-6bcbc71ca571" d="M965,2.72h15.68v23.2H990V39.41h-9.32V88.76H965V39.41h-8V25.92h8Z"/></svg>