<svg version="1.2" baseProfile="tiny-ps" xmlns="http://www.w3.org/2000/svg" viewBox="0 0 295 70" width="295" height="70">
	<title>KRAS-BUSREIZEN_PMS485 (1)-svg</title>
	<defs>
		<clipPath clipPathUnits="userSpaceOnUse" id="cp1">
			<path d="m-65.18-85.88l427.9-0.24l0.15 259.25l-427.9 0.24l-0.15-259.25z" />
		</clipPath>
	</defs>
	<style>
		tspan { white-space:pre }
		.s0 { fill: #d32011 } 
		.s1 { fill: #ffffff } 
		.s2 { fill: #918f90 } 
	</style>
	<g id="g10">
		<path id="path12" class="s0" d="m0.49-0.07l71.62-0.04l0.04 70.7l-71.62 0.04l-0.04-70.7z" />
		<g id="g14">
			<g id="Clip-Path: g16" clip-path="url(#cp1)">
				<g id="g16">
					<g id="g22">
						<path id="path24" class="s1" d="m36.46 14.02c0.43-0.15 0.92 0.12 1.38-0.04c-0.13 0.04-0.27-0.08-0.24-0.12c0.24-0.35 0.65-0.32 0.94-0.02c0.26-0.64 0.97-0.41 1.44-0.6c0.84-0.35 1.79-0.7 2.75-0.63c0.1 0.01 0.19 0.16 0.28 0.25c-0.05-0.23 0.17-0.3 0.29-0.41c0.15-0.13 0.23 0.23 0.4 0.12c0.17-0.12 0.27-0.33 0.43-0.38c1.4-0.44 2.72-0.84 4.19-1.11c0.07-0.01 0.19 0.22 0.26 0.21c0.17-0.03 0.29-0.34 0.42-0.33c0.81 0.08 1.48-0.27 2.22-0.43c0.36-0.08 0.81-0.23 1.17-0.37c1.69-0.66 3.46-0.81 5.3-1.21c1.85-0.4 3.57-0.75 5.43-1.02c1.36-0.2 2.67 0.54 4.03 0.54c0.16 0 0.44-0.14 0.56-0.37c0.37 0.4-0.14 1.11-0.43 1.17c-1.25 0.23-2.47-0.22-3.74 0c-3.4 0.58-6.46 1.55-9.74 2.48c-4.23 1.2-8.35 2-12.49 3.41c-0.83 0.28-1.7 0.42-2.6 0.6c-0.53 0.1-1.08 0.36-1.58 0.5c-1.57 0.46-3.08 0.89-4.7 1.3c-0.38 0.09-0.82 0.32-1.15 0.37c-0.86 0.13-1.61 0.54-2.48 0.65c-0.27 0.03-0.69 0.33-1 0.37c-0.69 0.09-1.2 0.59-1.94 0.59c-0.28 0-0.65 0.34-0.99 0.41c-0.99 0.19-1.77 0.69-2.76 0.86c-0.25 0.04-0.57 0.34-0.87 0.41c-0.56 0.13-1.11 0.28-1.63 0.43c-2.47 0.72-4.66 1.95-6.95 3.1c-1.18 0.6-2.36 1.22-3.4 2.13c-0.43 0.38-0.75 0.93-0.75 1.39c0 0.71 0.49 1.43 1.3 1.66c2.18 0.64 4.39 0.82 6.56 0.83c0.79 0 1.66 0 2.52-0.06c0.24-0.02 0.53 0.25 0.83 0.19c0.11-0.02 0.18-0.2 0.29-0.24c0.65-0.22 1.37 0.22 1.97-0.12c0.15-0.08 0.39 0.21 0.53 0.18c0.72-0.13 1.43-0.2 2.12-0.26c0.71-0.07 1.48-0.08 2.22 0.03c0.05-0.6 0.6-0.2 0.88-0.33c0.59-0.28 1.35 0.12 2.05 0.05c-0.04-0.14 0.04-0.21 0.14-0.28c0.11 0.38 0.37-0.03 0.59 0.08c0.51 0.25 1.07-0.44 1.64-0.08c0.18-0.33 0.42-0.27 0.7-0.14c-0.04-0.14 0.07-0.27 0.13-0.25c0.38 0.17 0.77 0.1 1.13 0.25c-0.04-0.14 0.04-0.25 0.14-0.26c0.28-0.01 0.6-0.15 0.84 0.12c-0.04-0.14 0.04-0.26 0.14-0.26c1.34 0 2.56-0.32 3.92-0.55c0.33-0.06 0.66 0.35 0.94 0.19c0.14-0.08 0.33-0.06 0.47-0.2c0.07-0.07 0.3-0.09 0.39 0.11c0.17-0.42 0.66 0.13 0.84-0.28c0.23 0.32 0.58 0.07 0.84 0.08c0.14 0.01 0.29-0.31 0.55-0.21c0.11 0.04 0.13 0.2 0.17 0.23c0.3 0.22 0.36-0.3 0.54-0.33c0.47-0.07 0.91-0.23 1.39-0.17c0.1 0.01 0.18 0.12 0.14 0.26l0.28 0c-0.04-0.14 0.08-0.27 0.12-0.25c0.44 0.3 0.74-0.26 1.14-0.16c0.11 0.03 0.21 0.14 0.13 0.26c-0.06 0.1-0.2 0.18-0.11 0.27c0.05 0.05 0.17 0.02 0.26 0.02c-0.05-0.27 0.05-0.74 0.4-0.53c0.16 0.09 0.31 0.38 0.41 0.34c0.46-0.21 0.76-0.57 1.26-0.32c0.24 0.12 0.42 0.29 0.72 0.23c0.23-0.05 0.07-0.43 0.27-0.38c0.89 0.2 1.67 0.07 2.53 0c0.28-0.03 0.65-0.06 0.82 0.26c0.06 0.13-0.04 0.39 0.16 0.38c0.27-0.01 0.55-0.18 0.83-0.1c0.11 0.03 0.18 0.13 0.14 0.27c0.15-0.01 0.31-0.06 0.43-0.08c0.55-0.07 0.85 0.53 1.05 0.94c0.09 0.18 0.29 0.41 0.2 0.67c0.15 0.01 0.43 0 0.37 0.11c-0.21 0.34-0.1 0.75-0.38 1c-0.05 0.05-0.17 0.01-0.27 0.01c0.14 0.36-0.14 0.64-0.32 0.79c-0.5 0.41-1.07 0.75-1.66 0.96c-1.12 0.4-2.28 0.69-3.46 0.91c0.07 0.35-0.29 0.28-0.45 0.38c-0.12 0.08-0.39 0.13-0.53-0.1c-0.59 0.46-1.41 0.34-1.99 0.95c-0.16 0.17-0.47-0.14-0.64-0.06c-2.19 1.06-4.45 1.55-6.75 2.25c-2.42 0.74-4.94 1.21-7.23 2.32c-0.84-0.55-1.4 0.6-2.23 0.52c-0.21-0.02-0.22-0.26 0-0.37c0.07-0.04 0.18-0.01 0.27-0.01c-0.31-0.14-0.54 0.13-0.83 0.18c-0.06 0.01 0.03 0.17 0.13 0.24c-0.42 0.46-1.06 0.38-1.6 0.76c-0.33 0.24-0.84 0.57-1.32 0.34c-0.04-0.02-0.01-0.16-0.01-0.25c-0.47 0-0.33 0.54-0.71 0.66c-0.26 0.08-0.47 0.11-0.71 0.29c-0.21 0.16-0.39-0.08-0.54-0.25c-0.01 0.15 0.07 0.36-0.14 0.4c-0.15 0.03-0.3-0.04-0.43-0.06c-0.27-0.05 0.24 0.51-0.12 0.44c-0.27-0.05-0.46 0.13-0.71 0.09c-0.21-0.03-0.06 0.38-0.27 0.36c-0.52-0.05-0.85 0.61-1.4 0.31c0.05-0.05 0.13-0.11 0.12-0.13c-0.19-0.29-0.3-0.03-0.4 0.13c0.15 0.01 0.33-0.06 0.42 0.14c-0.83 0.16-1.36 1.02-2.38 0.89c-0.12-0.01 0.35 0.31 0.01 0.33c-0.46 0.02-0.67 0.52-1.11 0.46c0.05 0.24-0.17 0.32-0.29 0.39c-0.15 0.08-0.36 0.03-0.54 0.03c0.1 0.07 0.18 0.14 0.14 0.28c0.7-0.15 1.27 0.3 1.95 0.25c0.1-0.01 0.18-0.21 0.28-0.22c0.47-0.06 0.74 0.05 1.15 0.35c0.27 0.2 0.19-0.38 0.38-0.34c0.52 0.13 0.84-0.11 1.27 0.24c-0.04-0.14 0.04-0.26 0.14-0.26c0.51-0.01 0.97-0.4 1.56-0.06c0.3 0.18 0.19-0.31 0.4-0.39c0.23-0.09 0.38 0.21 0.55 0.12c0.73-0.38 1.45-0.71 2.24-0.62c0.28 0.03 0.04 0.44 0.17 0.63c0.06 0.09 0.17-0.06 0.26-0.1c0.21-0.1 0.09 0.42 0.22 0.23c0.25-0.37-0.45-0.51-0.41-0.64c0.15-0.62 0.52 0.44 1.03 0.12c-0.05-0.05-0.12-0.09-0.12-0.14c0.01-0.22 0.35-0.06 0.4-0.28c0.2 0.09 0.13 0.27 0.14 0.42c0.1-0.26 0.41-0.04 0.58-0.26c0.07-0.09 0.19 0.02 0.26 0.12c0.16-0.17 0.39-0.28 0.58-0.37c0.47-0.24 0.05 0.57 0.39 0.47c0.07-0.02-0.05-0.15-0.12-0.25c-0.08-0.12 0.04-0.26 0.12-0.24c0.26 0.07 0.47-0.4 0.71-0.03c0.06-0.22 0.25-0.38 0.42-0.38c0.6-0.01 1.19-0.04 1.82 0.06c0.14 0.02 0.05-0.37 0.27-0.36c0.1 0.01 0.18 0.12 0.14 0.26c0.66-0.04 1.32-0.44 1.96-0.14c-0.35-0.18-0.35-0.78 0-0.76c0.24 0.01 0.47 0.39 0.7 0.62c0.07-0.1 0.15-0.2 0.27-0.13c0.11 0.07 0.19 0.18 0.28 0.27c-0.13-0.44 0.4-0.86 0.63-0.63c0.37 0.35 0.32 0.03 0.75 0.37c0.09 0.08-0.09 0.2-0.09 0.25c0.04 0.45 0.24-0.21 0.39 0c-0.03-0.24-0.45-0.25-0.37-0.39c0.25-0.46 1.05-0.5 1.35-0.16c0.07-0.1 0.15-0.21 0.27-0.13c0.1 0.07 0.15 0.16 0.29 0.13c-0.04-0.13 0.07-0.27 0.12-0.25c0.59 0.3 1.21 0.01 1.84-0.14c0.07-0.01 0.16 0.19 0.28 0.22c0.14 0.05 0.33 0.08 0.41-0.12c0.56 0.56 1.35 0.41 1.67-0.28c0.2 0.14 0.2 0.28 0 0.42c0.42-0.25 0.84-0.1 1.25 0.01c0.11 0.03 0.18 0.13 0.14 0.27c0.04-0.14-0.04-0.21-0.14-0.28c0.09-0.09 0.19-0.19 0.28-0.28c0.33 0.61 1.26 0.11 1.54 0.84c0.48-0.21 0.83-0.13 1.27-0.17c0.32-0.03 0.53 0.73 1.1 0.59c0.11 0.57 0.74 0.83 0.84 1.4c0.26-0.25 0.38 0.07 0.56 0.14c-0.11 0.29-0.11 0.65-0.42 0.83c-0.12 0.07-0.21-0.03-0.27-0.13c-0.14 0.14 0.34 0.28 0 0.42c0.13-0.04 0.21 0.04 0.28 0.14c-0.7 0.24-0.47 0.5-0.87 1.09c-0.06 0.08-0.33-0.05-0.37 0.17c-0.01 0.04 0.08 0.09 0.12 0.14c-0.71 0.27-1.31 0.54-1.97 0.95c-0.11 0.07-0.31 0.08-0.4-0.11c-0.9 0.82-2.04 1.22-3.22 1.37c-0.09 0.01-0.17-0.12-0.13-0.25c-0.12 0.67-0.95 0.97-1.53 0.7c0.05-0.05 0.09-0.09 0.14-0.14c-2.45 1.82-5.59 1.66-8.25 3.19c-0.44 0.25-0.96-0.34-1.36 0.05c-0.08 0.08 0.04 0.32-0.16 0.39c-0.44 0.16-0.93 0-1.27 0.26c-0.23 0.18-0.22-0.35-0.38-0.22c-0.09 0.07 0.5 0.19 0.1 0.35c-0.34 0.14-0.74-0.29-1.08-0.06c-0.09 0.06 0.49 0.12 0.11 0.37c-0.12 0.08-0.2-0.03-0.27-0.13c-0.31 0.36-0.96 0.83-1.38 0.4c-0.09-0.09 0.02-0.21 0.13-0.25c0.08-0.03 0.18-0.01 0.28-0.01c-0.28-0.39-0.56 0.19-0.84 0c-0.08 0.26 0.37 0.06 0.26 0.27c-0.11 0.2-0.42 0.2-0.54 0.43c-0.09-0.09-0.17-0.2-0.28-0.27c-0.12-0.07-0.2 0.03-0.28 0.13c-0.13 0.15 0.34 0.38 0.01 0.37c-0.24-0.01-0.49 0.43-0.69 0.04c-0.04-0.07 0.01-0.23-0.02-0.25c-0.26-0.12-0.56 0.01-0.83 0.12c0.13-0.04 0.27 0.09 0.25 0.11c-0.69 0.76-1.69 0.76-2.63 0.98c-0.2 0.05-0.39-0.11-0.55-0.25c0.12 0.22 0.53 0.29 0.49 0.4c-0.13 0.44-0.58-0.16-0.77 0.3c-0.16-0.28-0.52-0.33-0.66-0.23c-0.61 0.45-1.18 0.72-1.85 0.51c0.05 0.05 0.13 0.11 0.12 0.13c-0.18 0.4-0.45-0.14-0.68 0.01c0.15 0.01 0.34-0.06 0.41 0.14c0.05 0.13-0.03 0.22-0.14 0.27c-0.13 0.06-0.21-0.03-0.28-0.13c-0.33 0.33-0.74 0.57-1.12 0.84c-0.37-0.54-0.75 0.46-1.12 0c-0.14 0.22-0.09 0.6-0.29 0.64c-0.34 0.06-0.47-0.38-0.66-0.65c-0.15-0.23 0.41-0.38 0.12-0.68c0.07 0.45-0.45 0.63-0.5 1.11c-0.04 0.33-0.66 0.36-0.9 0.71c-0.2-0.16-0.47-0.39-0.66-0.24c-0.18 0.15 0.26 0 0.27 0.24c0.01 0.35-0.32 0.26-0.46 0.39c-0.08 0.07-0.31 0.09-0.39-0.11c-0.34 0.61-0.99 0.62-1.55 0.81c-0.07 0.02-0.17-0.11-0.13-0.25c0.04 0.14-0.04 0.22-0.14 0.27c-0.25 0.11-0.45-0.27-0.68-0.11c-0.05 0.03-0.05 0.2 0 0.23c0.11 0.08 0.32-0.04 0.4 0.16c0.05 0.13-0.03 0.25-0.14 0.26c-0.37 0.02-0.83 0.47-1.07 0c-0.07-0.15 0.34-0.15 0.37-0.39c-0.14 0.04-0.27-0.05-0.25-0.13c0.12-0.59 0.68-0.64 1.09-0.98c-0.09-0.09-0.25-0.19-0.25-0.28c0-0.09 0.15-0.19 0.25-0.28c0.07 0.1 0.14 0.18 0.28 0.14c-0.04-0.13 0.04-0.22 0.14-0.27c0.13-0.06 0.21 0.1 0.27 0.1c0.24-0.02 0.23-0.4 0.43-0.5c0.12-0.06 0.29 0.03 0.42 0.06c0.27 0.05-0.26-0.43 0.13-0.48c0.04-0.01 0.09 0.07 0.14 0.12c0.16-0.57 0.66-0.79 1.15-1.07c0.11-0.07 0.1 0.22 0.11 0.37c0.49-0.09 0.61-0.7 0.99-0.77c0.43-0.07 0.69-0.35 0.96-0.63c0.1 0.27 0.4 0.13 0.56 0.28c0.01-0.15-0.07-0.37 0.14-0.4c0.04-0.01 0.09 0.07 0.14 0.12c-0.07-0.27 0.09-0.49 0.29-0.52c0.18-0.03 0.12 0.23 0.13 0.38c0.22-0.05 0.1-0.45 0.26-0.38c0.34 0.15 0.58-0.39 0.86-0.04c0.22-0.54 0.82-0.48 1.2-0.77c0.45-0.36 0.87-0.19 1.31-0.48c-0.1-0.07-0.21-0.16-0.13-0.27c0.13-0.17 0.38-0.35 0.51-0.25c0.31 0.25 0.4 0.09 0.73 0.1c-0.04-0.05-0.13-0.12-0.12-0.13c0.25-0.35 0.52 0.14 0.68-0.29c0.09 0.09 0.19 0.19 0.28 0.28c0.07-0.1 0.15-0.18 0.28-0.14c-0.14-0.14-0.38-0.29-0.37-0.41c0.04-0.28 0.41-0.14 0.64-0.13c0.1 0.01 0.18 0.12 0.14 0.26c0.25-0.03 0.21-0.41 0.41-0.39c0.33 0.03 0.58 0.41 0.98 0.25c-0.19-0.03-0.42 0.09-0.56-0.14c0.22-0.06 0.06-0.36 0.28-0.42c0.14-0.04 0.21 0.04 0.28 0.14c0.12-0.22 0.37-0.27 0.57-0.41c0.12-0.08 0.2 0.03 0.27 0.13c-0.04-0.14 0.06-0.27 0.13-0.25c0.76 0.25 1.25-0.18 1.82-0.59c0.07 0.1 0.15 0.21 0.27 0.13c0.2-0.14 0.4-0.22 0.59-0.38c0.11-0.09 0.16 0.5 0.38 0.11c0.01-0.02-0.07-0.08-0.12-0.13c1.64-1.12 3.69-1 5.51-1.81c0.42-0.19 1.08-0.21 1.6-0.46c0.2-0.09 0.4-0.22 0.59-0.37c0.17-0.13 0.01 0.38 0.25 0.23c0.39-0.23 0.81-0.51 1.14-0.56c0.74-0.12 1.25-0.75 2.09-0.57c0.2 0.04 0.05-0.36 0.27-0.37c0.29-0.01 0.48-0.09 0.72-0.27c0.17-0.13 0.09 0.4 0.2 0.22c0.21-0.35 0.53-0.31 0.78-0.5c0.13-0.09 0.38 0.03 0.52-0.06c0.34-0.19 0.65-0.43 1-0.49c1.1-0.18 1.92-0.86 2.92-1.16c-0.85-0.22-1.63-0.13-2.51-0.14c-0.19 0-0.19-0.47-0.39-0.25c-0.36 0.41-0.65 0.06-1.01-0.03c0.04 0.14-0.05 0.27-0.13 0.25c-0.43-0.11-0.9-0.45-1.23-0.31c-0.22 0.09-0.47 0.47-0.72 0.42c-0.23-0.04-0.49-0.17-0.72-0.34c-0.24-0.18-0.43 0.15-0.69 0.17c-0.15 0.01 0.35 0.27-0.01 0.36c-0.14 0.04-0.36 0.09-0.39-0.13c-0.01-0.04 0.07-0.09 0.12-0.14c-0.27 0.08-0.55 0.13-0.7 0.42c-0.28-0.38-0.91 0.17-1.12-0.42c-0.22 0.21-0.23 0.69-0.69 0.55c-0.21-0.06-0.09-0.28-0.17-0.39c-0.03-0.05-0.19-0.05-0.24 0c-0.09 0.09 0.03 0.2 0.12 0.26c-0.5 0.36-1.11 0.3-1.68 0.38c-0.08 0.01-0.18-0.15-0.28-0.24c0.03 0.21-0.09 0.34-0.27 0.26c-0.09-0.04-0.15-0.16-0.29-0.12c0.04 0.14-0.05 0.27-0.14 0.25c-0.65-0.08-1.15-0.09-1.68 0.31c-0.12-0.3-0.49 0.25-0.54-0.14c-0.01-0.04 0.08-0.09 0.12-0.13c-0.49 0.13-0.92 0.49-1.4 0.51c-0.19 0.01-0.13-0.19-0.03-0.39c0.03-0.05-0.14-0.19-0.23-0.11c-0.22 0.21-0.42 0.31-0.71 0.26c0.05 0.23-0.2 0.27-0.28 0.42c-0.08-0.28-0.41-0.24-0.56-0.42c-0.38 0.99-1.22 0.12-1.94 0.33c-0.05 0.01 0 0.38-0.13 0.32c-0.51-0.23-1.02 0.25-1.39-0.11c-0.07-0.07 0.02-0.31-0.05-0.36c-0.16-0.13-0.12 0.36-0.4 0.25c-0.04 0.14 0.04 0.21 0.14 0.28c-0.57 0.52-1.29 0.24-1.97 0.37c-0.11 0.02-0.25-0.3-0.41-0.33c-0.26-0.04-0.51 0.25-0.71 0.3c-1.59 0.34-3.12 0.45-4.71 0.14c-0.26-0.05-0.61-0.23-0.86-0.47c-0.24-0.23 0.5-0.16 0.13-0.19c-0.64-0.07-1.14 0.05-1.49-0.52c-0.03-0.04 0.11-0.16 0.25-0.12c-0.76 0.03-0.92-0.68-0.98-1.26c0.16 0.01 0.15-0.49 0.42-0.14c-0.04-0.21-0.21-0.38-0.24-0.57c-0.01-0.08 0.21-0.18 0.21-0.27c0-0.09-0.23-0.2-0.21-0.27c0.08-0.36 0.48-0.3 0.8-0.29c-0.05-0.05-0.09-0.09-0.14-0.14c0.27-0.2 0.69-0.18 0.84-0.56c-0.37-0.11-0.36 0.47-0.52 0.37c-0.73-0.5 0.07-0.81 0.55-1c0.44-0.18 0.97-0.43 1.51-0.2c0.05-0.6 0.69-0.59 1-0.96c0.08-0.09 0.19 0.02 0.26 0.12c0.14-0.87 1.06-0.9 1.54-1.4c0.21 0.42 0.45 0.39 0.84 0.28c-0.2-0.09-0.17-0.35-0.12-0.38c0.74-0.38 1.54-1.16 2.35-0.88c0.04-0.14-0.04-0.21-0.14-0.28c0.15-0.19 0.42-0.24 0.6-0.35c0.36-0.21 0.96 0.22 1.31 0c0.78-0.5 1.59-0.74 2.43-1c0.31-0.1-0.08 0.29 0.13 0.37c0.03-0.19-0.09-0.51 0.14-0.51c0.4 0.01 0.67-0.38 1.14-0.25c0.1 0.03-0.37-0.24-0.01-0.35c0.71-0.23 1.42-0.18 2.12-0.66c0.15-0.1 0.47-0.17 0.66 0.09c0.27-0.86 1.04-0.46 1.69-0.82c0.2-0.11 0.04 0.4 0.24 0.23c0.08-0.07-0.04-0.35 0.17-0.37c0.09-0.01 0.12 0.14 0.16 0.24c0.06 0.17 0.17-0.24 0.43-0.04c0.14 0.11 0.17-0.36 0.38-0.34c0.59 0.07 0.87-0.35 1.4-0.42c0.2-0.03 0.17 0.35 0.41 0.39c-0.1-0.07-0.2-0.15-0.13-0.27c0.37-0.65 1.16-0.34 1.72-0.77c0.12-0.1 0.5-0.25 0.78-0.07c-0.04-0.14 0.03-0.23 0.14-0.27c0.33-0.12 0.46 0.08 0.69 0.27c0.04-0.21 0.14-0.39 0.28-0.56c0.09 0.2 0.27 0.13 0.42 0.14c-0.05-0.23 0.2-0.27 0.28-0.42c0.52 0.35 0.93-0.55 1.39 0c0.12-0.22 0.37-0.27 0.57-0.41c0.12-0.08 0.2 0.03 0.27 0.13c0.14-0.14 0.26-0.35 0.43-0.38c1.6-0.35 2.95-1.06 4.59-1.25c0.92-0.11 1.8-0.59 2.66-1.02c0.09 0.2 0.27 0.13 0.42 0.14c-0.04-0.13 0.04-0.21 0.14-0.28c-0.51-0.1-1.08 0.13-1.54-0.28c-0.06 0.22-0.37 0.21-0.42 0.21c-1.08-0.03-2.16 0.15-3.2 0.23c-0.61 0.05-1.33 0.02-1.99 0.14c-0.75 0.14-1.51 0.34-2.36 0.16c-0.07-0.02-0.19 0.22-0.26 0.21c-0.29-0.07-0.54-0.23-0.85-0.24c0.04 0.13-0.06 0.27-0.13 0.25c-0.17-0.05-0.29-0.25-0.43-0.39c-0.03 0.19 0.09 0.51-0.14 0.51c-0.65 0-1.33 0.06-1.96-0.23c-0.21 0.59-0.9 0.32-1.39 0.14c0 0.09 0.03 0.23-0.01 0.25c-0.64 0.37-1.43 0.05-2.08 0.45c-0.25-0.4-0.31-0.47-0.7-0.7c0.05 0.29 0 0.59-0.28 0.67c-0.64 0.17-1.36-0.14-1.91 0.11c-0.48 0.22-0.94 0.16-1.43 0.17c-0.09 0-0.19-0.15-0.28-0.25c-0.3 0.54-0.94 0.5-1.4 0.14c0.05-0.05 0.12-0.09 0.12-0.14c0-0.05-0.08-0.09-0.12-0.14c-0.09 1.06-1.05 0.46-1.68 0.45c-0.09 0-0.19 0.22-0.27 0.21c-0.34-0.04-0.68-0.48-0.94-0.32c-0.24 0.15-0.46 0.45-0.74 0.45c-0.79 0-1.63 0.3-2.37-0.23c0.04 0.14-0.04 0.25-0.14 0.26c-0.23 0.01-0.49-0.25-0.67-0.09c-0.4 0.39-0.89 0.22-1.3 0.29c-1 0.17-2.03 0.1-3.05 0.07c-0.2-0.01-0.13-0.24-0.14-0.39c0.05 0.24-0.18 0.36-0.29 0.37c-0.5 0.08-1.01-0.06-1.54 0.17c-0.21 0.09-0.04-0.24-0.25-0.32c-0.3-0.11-0.23 0.37-0.44 0.19c-0.1-0.09-0.19-0.18-0.28-0.28c-0.15 0.17-0.28 0.35-0.56 0.28c-1.8-0.44-3.6-0.4-5.28-1.05c-0.62-0.24-1.14-0.66-1.33-1.45c-0.01-0.03-0.23-0.01-0.37-0.01c0.04 0.13-0.04 0.22-0.14 0.27c-0.13 0.06-0.24-0.02-0.26-0.14c-0.05-0.23 0.05-0.5-0.05-0.67c-0.04-0.06-0.27 0.02-0.37-0.05c-0.6-0.41-0.81-1.11-1.04-1.69c-0.07-0.17-0.42-0.32-0.3-0.68c0.22-0.65 0.53-1.25 0.86-1.82c0.13-0.23 0.01-0.54 0.32-0.66c0.22-0.09 0.27 0.19 0.41 0.27c-0.13-0.53 0.37-0.92 0.73-1.03c0.38-0.12 0.65-0.36 1.09-0.37c-0.05-0.05-0.09-0.09-0.14-0.14c0.63-0.61 1.4-1.02 2.14-1.45c0.55-0.32 1.28-0.47 1.85-0.76c0.37-0.18 0.85-0.35 1.22-0.67c0.22-0.19 0.77 0.06 1.02-0.12c0.18-0.13-0.33 0.41-0.25-0.08c0.1-0.61 0.7-0.03 0.85-0.42c0.1 0.07 0.18 0.14 0.14 0.28c0.31-0.37 0.73-0.67 1.13-0.75c0.64-0.13 1.18-0.39 1.78-0.56c0.05-0.01-0.05-0.34 0.15-0.35c1.1-0.05 2.11-0.54 3.09-0.97c0.23-0.11 0.58 0.05 0.8-0.08c1.59-0.91 3.33-1.02 4.97-1.6c0.57-0.2 1.54-0.57 2.18-0.62c0.26-0.02 0.55-0.56 0.83-0.12c-0.04-0.14 0.04-0.26 0.14-0.25c1.42 0.08 2.62-0.74 4.04-0.91c0.29-0.03 0.57-0.23 0.86-0.34z" />
					</g>
					<g id="g26">
						<path id="path28" class="s0" d="m100.06 0.03l0.01 12.35l5.59 0l13.38-12.36l13.52-0.01l-18.57 16.52l19.89 16.23l-13.78 0.01l-14.69-12.34l-5.46 0l0.01 12.34l-9.49 0.01l-0.02-32.75l9.62-0.01z" />
					</g>
					<g id="g30">
						<path id="path32" class="s0" d="m262.76 22.42c0 1.95 0.65 3.64 3.38 3.64c2.73 0 11.3 0.19 15.46-0.07c4.48-0.28 3.7-5.64 0.64-5.78c-2.73-0.13-13.77-0.19-21.05-0.7c-7.28-0.52-7.93-5.26-7.93-9.81c0-4.14 1.32-9.6 7.92-9.89c7.67-0.33 12.22-0.27 23-0.27c10.78-0.01 9.23 10.27 9.23 10.27l-9.68-0.06c0-1.17 0.19-3.19-2.93-3.19c-3.12 0-8.64-0.08-13.84 0.07c-5.26 0.16-4.88 5.77-0.71 5.92c3.64 0.13 10 0.12 18.06 0.25c8.05 0.13 10.27 2.98 10.27 9.87c0 6.89-4.15 10.01-9.61 10.27c-5.46 0.26-9.87-0.13-21.31-0.12c-11.44 0.01-10.14-6.23-10.14-10.39l9.23-0.01z" />
					</g>
					<g id="g34">
						<path id="path36" fill-rule="evenodd" class="s0" d="m144.2 32.76l-0.02-32.75l32.49-0.02c2.6 0 5.16 0.54 7.02 2.4c2.57 2.57 2.54 5.78 2.54 10.98c-0.06 6.18-6.88 7.28-6.88 7.28c0 0 6.43 0.12 6.44 4.8l0 7.28l-9.81 0.01l0-5.33c0-1.11-1.01-2.37-2.37-2.37l-19.33 0.01l0 7.7l-10.07 0.01zm10.06-24.83l0 8.78l18.39-0.01c5.34 0 5.27-8.78 0-8.78l-18.39 0.01zm60.55-7.96l12.6-0.01l18.34 32.74l-10.66 0.01l-4.03-5.85l-20.27 0.01l-3.38 5.85l-11.17 0.01l18.56-32.77zm-0.9 20.28l14.16-0.01l-6.89-12.6l-7.27 12.61z" />
					</g>
					<g id="g38">
						<path id="path40" fill-rule="evenodd" class="s2" d="m90.46 41.92c1.83-0.34 5.16-0.64 8.45-0.65c4.22 0 6.9 0.51 9.01 1.83c1.97 1.07 3.29 2.94 3.29 5.42c0 2.65-1.83 5.04-5.25 6.19l0 0.13c3.33 0.76 6.38 3.15 6.39 7.08c0 2.56-1.22 4.57-3 5.93c-2.25 1.79-5.96 2.69-11.78 2.69c-3.19 0-5.59-0.21-7.09-0.38l-0.02-28.24zm5.73 11.34l2.96 0c4.04 0 6.24-1.71 6.24-4.14c0-2.73-2.25-3.97-5.92-3.96c-1.69 0-2.67 0.09-3.29 0.22l0 7.89zm0.01 13.18c0.75 0.13 1.74 0.13 3.05 0.13c3.71 0 7.04-1.24 7.04-4.83c0-3.33-3.24-4.69-7.23-4.69l-2.86 0l0.01 9.39z" />
					</g>
					<g id="g42">
						<path id="path44" class="s2" d="m139.33 63.99c0 2.47 0.1 4.52 0.19 6.23l-5.02 0l-0.28-3.11l-0.14 0c-0.99 1.45-3.24 3.58-7.37 3.59c-4.13 0-7.93-2.26-7.94-9.04l-0.01-12.2l5.77 0l0.01 11.31c0 3.46 1.22 5.67 4.27 5.67c2.35 0 3.85-1.45 4.41-2.82c0.23-0.43 0.33-1.02 0.33-1.62l-0.01-12.54l5.77 0l0.01 14.55z" />
					</g>
					<g id="g46">
						<path id="path48" class="s2" d="m146.93 65.35c1.27 0.72 3.75 1.53 5.82 1.53c2.54 0 3.66-0.98 3.66-2.35c0-1.41-0.94-2.09-3.76-3.03c-4.46-1.36-6.29-3.58-6.29-6.06c0-3.67 3.33-6.49 8.63-6.49c2.53 0 4.74 0.55 6.1 1.23l-1.17 3.67c-0.94-0.51-2.82-1.19-4.83-1.19c-2.07 0-3.19 0.94-3.19 2.22c0 1.32 1.08 1.92 3.99 2.9c4.18 1.32 6.06 3.24 6.1 6.31c0 3.8-3.23 6.53-9.29 6.53c-2.77 0-5.26-0.59-6.95-1.45l1.17-3.84z" />
					</g>
					<g id="g50">
						<path id="path52" class="s2" d="m168.32 56.13c0-2.81-0.05-4.86-0.19-6.7l4.98 0l0.24 3.93l0.14 0c1.12-2.9 3.8-4.4 6.29-4.4c0.56 0 0.89 0.04 1.36 0.13l0 4.91c-0.52-0.08-1.03-0.13-1.74-0.13c-2.72 0-4.65 1.58-5.16 3.97c-0.09 0.47-0.14 1.02-0.14 1.58l0.01 10.79l-5.77 0l-0.01-14.08z" />
					</g>
					<g id="g54">
						<path id="path56" fill-rule="evenodd" class="s2" d="m190.29 61.28c0.14 3.75 3.38 5.37 7.04 5.37c2.68 0 4.55-0.39 6.34-0.94l0.85 3.58c-1.97 0.77-4.69 1.33-7.98 1.33c-7.41 0-11.78-4.13-11.79-10.49c0-5.76 3.84-11.18 11.16-11.18c7.42 0 9.86 5.54 9.86 10.11c0 0.98-0.09 1.75-0.19 2.22l-15.3 0.01zm10.04-3.67c0.05-1.92-0.89-5.08-4.74-5.07c-3.57 0-5.07 2.95-5.3 5.08l10.04-0.01z" />
					</g>
					<path id="path58" class="s2" d="m212.01 49.4l5.77 0l0.01 20.78l-5.77 0l-0.01-20.78zm2.86-2.99c-1.93 0-3.19-1.28-3.19-2.81c0-1.62 1.31-2.86 3.24-2.86c1.97 0 3.19 1.24 3.24 2.86c0 1.54-1.27 2.82-3.24 2.82l-0.05 0z" />
					<g id="g60">
						<path id="path62" class="s2" d="m223.47 67.15l8.58-9.99c1.17-1.28 2.16-2.31 3.33-3.5l0-0.09l-11.08 0.01l0-4.18l18.12-0.01l0 3.2l-8.35 9.77c-1.13 1.24-2.21 2.43-3.38 3.54l0 0.09l12.02-0.01l0 4.18l-19.24 0.01l0-3.03z" />
					</g>
					<g id="g64">
						<path id="path66" fill-rule="evenodd" class="s2" d="m252.1 61.24c0.14 3.75 3.38 5.37 7.04 5.37c2.68 0 4.55-0.39 6.34-0.94l0.85 3.58c-1.97 0.77-4.69 1.33-7.98 1.33c-7.41 0-11.78-4.13-11.79-10.49c0-5.76 3.84-11.18 11.16-11.18c7.42 0 9.86 5.54 9.86 10.11c0 0.98-0.09 1.75-0.19 2.22l-15.3 0.01zm10.04-3.67c0.05-1.92-0.89-5.08-4.74-5.07c-3.57 0-5.07 2.95-5.3 5.08l10.04-0.01z" />
					</g>
					<g id="g68">
						<path id="path70" class="s2" d="m273.82 55.56c0-2.39-0.1-4.39-0.19-6.19l5.02 0l0.28 3.11l0.14 0c1.03-1.62 3.52-3.58 7.32-3.59c3.99 0 8.12 2.34 8.12 8.91l0.01 12.33l-5.77 0l-0.01-11.73c0-2.99-1.22-5.25-4.37-5.25c-2.3 0-3.89 1.5-4.5 3.07c-0.19 0.43-0.28 1.07-0.28 1.66l0.01 12.24l-5.77 0l-0.01-14.59z" />
					</g>
				</g>
			</g>
		</g>
	</g>
</svg>