<?xml version="1.0" encoding="UTF-8"?>
<svg id="Laag_1" data-name="Laag 1" xmlns="http://www.w3.org/2000/svg" viewBox="0 0 1305.3 263.4">
  <defs>
    <style>
      .cls-1 {
        fill: #915436;
      }

      .cls-2 {
        fill: #00252e;
      }
    </style>
  </defs>
  <g>
    <path class="cls-1" d="M63.34,181.28c-4.68,0-8.47-3.79-8.47-8.47v-76.06c0-4.68,3.79-8.47,8.47-8.47s8.47,3.79,8.47,8.47v76.06c0,4.68-3.79,8.47-8.47,8.47Z"/>
    <path class="cls-1" d="M143.37,181.27c-4.68,0-8.47-3.79-8.47-8.47V8.47c0-4.68,3.79-8.47,8.47-8.47s8.47,3.79,8.47,8.47v164.33c0,4.68-3.79,8.47-8.47,8.47Z"/>
    <path class="cls-1" d="M257.69,181.27c-4.68,0-8.47-3.79-8.47-8.47V8.47c0-4.68,3.79-8.47,8.47-8.47s8.47,3.79,8.47,8.47v164.33c0,4.68-3.79,8.47-8.47,8.47Z"/>
    <path class="cls-1" d="M349.14,181.27c-4.68,0-8.47-3.79-8.47-8.47v-107.43c0-4.68,3.79-8.47,8.47-8.47s8.47,3.79,8.47,8.47v107.43c0,4.68-3.79,8.47-8.47,8.47Z"/>
    <path class="cls-1" d="M138.22,102.68H27.9c-4.68,0-8.47-3.79-8.47-8.47s3.79-8.47,8.47-8.47h110.32c4.68,0,8.47,3.79,8.47,8.47s-3.79,8.47-8.47,8.47Z"/>
    <path class="cls-1" d="M316.25,16.94H113.36c-4.68,0-8.47-3.79-8.47-8.47s3.79-8.47,8.47-8.47h202.89c4.68,0,8.47,3.79,8.47,8.47s-3.79,8.47-8.47,8.47Z"/>
    <path class="cls-1" d="M407.45,185.56H8.47c-4.68,0-8.47-3.79-8.47-8.47s3.79-8.47,8.47-8.47h398.98c4.68,0,8.47,3.79,8.47,8.47s-3.79,8.47-8.47,8.47Z"/>
    <path class="cls-1" d="M383.33,73.85h-153.65c-4.68,0-8.47-3.79-8.47-8.47s3.79-8.47,8.47-8.47h153.65c4.68,0,8.47,3.79,8.47,8.47s-3.79,8.47-8.47,8.47Z"/>
  </g>
  <g>
    <path class="cls-2" d="M865.83,131.99h-52.11V27.82c0-.82-.66-1.48-1.48-1.48h-17.32c-.82,0-1.48.66-1.48,1.48v122.97c0,.82.66,1.48,1.48,1.48h70.91c.82,0,1.48-.66,1.48-1.48v-17.32c0-.82-.66-1.48-1.48-1.48Z"/>
    <rect class="cls-2" x="703.82" y="26.34" width="20.28" height="125.92" rx="1.48" ry="1.48"/>
    <path class="cls-2" d="M643.58,26.17h-18.26c-.63,0-1.18.4-1.39.99l-32.82,92.89-32.4-92.88c-.21-.59-.77-.99-1.4-.99h-18.35c-.48,0-.93.23-1.2.62-.28.39-.35.89-.19,1.34l43.1,123.14c.21.59.77.99,1.39.99h18.17c.63,0,1.18-.4,1.39-.99l43.35-123.14c.16-.45.09-.95-.19-1.34-.28-.39-.73-.62-1.2-.62Z"/>
    <path class="cls-2" d="M1305.22,150.31l-42.26-122.78c-.09-.5-.45-.91-.94-1.11-.27-.11-.56-.12-.83-.07h-17.67c-.74-.17-1.57.32-1.78,1.06l-42.31,122.91c-.16.45-.08.95.19,1.34s.72.62,1.2.62h18.26c.63,0,1.19-.4,1.4-1l11.43-33.05h40.82l11.43,33.05c.21.6.77,1,1.4,1h18.26c.48,0,.93-.23,1.2-.62s.35-.89.19-1.34ZM1265.83,98.03h-27.01l13.46-39.14,13.54,39.14Z"/>
    <path class="cls-2" d="M998.46,131.99h-52.11V27.82c0-.82-.66-1.48-1.48-1.48h-17.32c-.82,0-1.48.66-1.48,1.48v122.97c0,.82.66,1.48,1.48,1.48h70.91c.82,0,1.48-.66,1.48-1.48v-17.32c0-.82-.66-1.48-1.48-1.48Z"/>
    <path class="cls-2" d="M1139.11,26.34h-78.94c-.82,0-1.48.66-1.48,1.48v122.97c0,.82.66,1.48,1.48,1.48h78.94c.82,0,1.48-.66,1.48-1.48v-17.32c0-.82-.66-1.48-1.48-1.48h-60.13v-32.54h40.25c.82,0,1.48-.66,1.48-1.48v-17.32c0-.82-.66-1.48-1.48-1.48h-40.25v-32.63h60.13c.82,0,1.48-.66,1.48-1.48v-17.24c0-.82-.66-1.48-1.48-1.48Z"/>
  </g>
  <g>
    <polygon class="cls-2" points="1240.21 234.28 1240.21 256.82 1228.38 234.32 1228.34 234.26 1224.47 234.26 1224.47 263.4 1227.93 263.4 1227.93 240.88 1239.74 263.34 1239.77 263.4 1243.65 263.4 1243.65 234.28 1240.21 234.28"/>
    <polygon class="cls-2" points="1182.42 263.4 1200.88 263.4 1200.88 259.94 1185.88 259.94 1185.88 250.54 1196.05 250.54 1196.05 247.08 1185.88 247.08 1185.88 237.68 1200.88 237.68 1200.88 234.22 1182.42 234.22 1182.42 263.4"/>
    <path class="cls-2" d="M787.24,234.22c-3.64,0-6.57,1.32-8.69,3.92-2.11,2.6-3.19,6.18-3.19,10.66s1.07,8.07,3.19,10.66c2.12,2.61,5.04,3.93,8.69,3.93s6.58-1.32,8.71-3.93c2.11-2.59,3.18-6.18,3.18-10.66s-1.07-8.06-3.18-10.66c-2.12-2.6-5.05-3.92-8.71-3.92ZM787.24,259.94c-2.66,0-4.75-.97-6.2-2.89-1.47-1.93-2.21-4.7-2.21-8.24s.74-6.3,2.21-8.24c1.46-1.92,3.54-2.89,6.2-2.89s4.76.97,6.22,2.89c1.47,1.95,2.21,4.72,2.21,8.24s-.74,6.31-2.21,8.24c-1.46,1.92-3.55,2.89-6.23,2.89Z"/>
    <polygon class="cls-2" points="753.82 237.79 753.85 237.76 753.85 234.22 733.34 234.22 733.34 237.68 749.6 237.68 733.26 259.85 733.24 259.88 733.24 263.4 754.89 263.4 754.89 259.94 737.48 259.94 753.82 237.79"/>
    <path class="cls-2" d="M611.01,234.22c-3.64,0-6.57,1.32-8.69,3.92-2.11,2.6-3.19,6.19-3.19,10.66s1.07,8.06,3.19,10.66c2.12,2.61,5.04,3.93,8.69,3.93s6.59-1.32,8.71-3.93c2.11-2.6,3.19-6.19,3.19-10.66s-1.07-8.06-3.19-10.66c-2.12-2.6-5.05-3.92-8.71-3.92ZM619.44,248.81c0,3.54-.74,6.31-2.21,8.24-1.46,1.92-3.55,2.89-6.23,2.89s-4.75-.97-6.2-2.89c-1.47-1.93-2.21-4.7-2.21-8.24s.74-6.3,2.21-8.24c1.46-1.92,3.55-2.89,6.2-2.89s4.76.97,6.22,2.89c1.47,1.95,2.21,4.72,2.21,8.24Z"/>
    <polygon class="cls-2" points="663.42 256.82 651.59 234.32 651.55 234.26 647.68 234.26 647.68 263.4 651.14 263.4 651.14 240.88 662.95 263.34 662.98 263.4 666.86 263.4 666.86 234.28 663.42 234.28 663.42 256.82"/>
    <polygon class="cls-2" points="1106.99 256.82 1095.16 234.32 1095.13 234.26 1091.25 234.26 1091.25 263.4 1094.71 263.4 1094.71 240.88 1106.52 263.34 1106.55 263.4 1110.43 263.4 1110.43 234.28 1106.99 234.28 1106.99 256.82"/>
    <polygon class="cls-2" points="689.08 237.68 697.63 237.68 697.63 263.4 701.09 263.4 701.09 237.68 709.65 237.68 709.65 234.22 689.08 234.22 689.08 237.68"/>
    <polygon class="cls-2" points="1032.38 256.82 1020.55 234.32 1020.51 234.26 1016.64 234.26 1016.64 263.4 1020.1 263.4 1020.1 240.88 1031.91 263.34 1031.94 263.4 1035.82 263.4 1035.82 234.28 1032.38 234.28 1032.38 256.82"/>
    <path class="cls-2" d="M840.74,247.58c1.09-1.38,1.64-3.1,1.64-5.11,0-2.49-.83-4.51-2.47-6.01-1.63-1.49-3.85-2.24-6.58-2.24l-9.3.02h-.12v29.16h3.46v-12.68h5.4l6.03,12.61.03.07h3.85l-6.26-13.08c1.83-.48,3.29-1.4,4.33-2.74ZM838.92,242.47c0,1.54-.48,2.73-1.43,3.55-.97.82-2.37,1.24-4.17,1.24h-5.96v-9.58h5.96c1.8,0,3.2.42,4.17,1.24.95.82,1.43,2.01,1.43,3.55Z"/>
    <path class="cls-2" d="M979.97,234.22c-3.64,0-6.57,1.32-8.69,3.92-2.11,2.6-3.19,6.19-3.19,10.66s1.07,8.06,3.19,10.66c2.12,2.61,5.04,3.93,8.69,3.93s6.59-1.32,8.71-3.93c2.12-2.6,3.19-6.19,3.19-10.66s-1.07-8.06-3.19-10.66c-2.12-2.6-5.05-3.92-8.71-3.92ZM988.4,248.81c0,3.54-.74,6.32-2.21,8.24-1.46,1.92-3.55,2.89-6.22,2.89s-4.75-.97-6.21-2.89c-1.46-1.93-2.21-4.7-2.21-8.24s.74-6.3,2.21-8.24c1.46-1.92,3.55-2.89,6.21-2.89s4.77.97,6.22,2.89c1.47,1.94,2.21,4.71,2.21,8.24Z"/>
    <rect class="cls-2" x="1061.8" y="234.24" width="3.46" height="29.16"/>
    <path class="cls-2" d="M880.24,250.54h6.18c0,.11-.02.25-.04.41-.29,2.86-1.17,5.09-2.6,6.65-1.45,1.55-3.37,2.34-5.71,2.34-2.6,0-4.66-.93-6.11-2.75-1.47-1.85-2.24-4.5-2.31-7.87v-1c.06-3.38.87-6.02,2.41-7.86,1.51-1.84,3.65-2.77,6.37-2.77,3.5,0,6.01,1.51,7.46,4.48l.05.1,3.18-1.36-.05-.11c-1-2.11-2.43-3.75-4.25-4.88-1.82-1.12-3.97-1.69-6.38-1.69-3.68,0-6.66,1.28-8.85,3.8-2.17,2.51-3.31,5.97-3.39,10.28v1.01c.08,4.33,1.19,7.79,3.29,10.3,2.12,2.51,5.01,3.79,8.59,3.79s6.31-1.22,8.41-3.62v3.62h3.46v-16.32h-9.7v3.46Z"/>
    <polygon class="cls-2" points="937.14 257.06 931.12 234.27 931.09 234.18 926.94 234.18 920.84 257.06 914.81 234.27 914.79 234.18 911.22 234.18 918.93 263.31 918.95 263.4 922.72 263.4 928.64 241.17 929.01 239.81 935.23 263.31 935.26 263.4 939.02 263.4 946.78 234.33 946.82 234.18 943.25 234.18 937.14 257.06"/>
    <path class="cls-2" d="M1149.13,250.54h6.18c0,.11-.02.25-.04.41-.29,2.86-1.17,5.1-2.6,6.65-1.45,1.55-3.37,2.34-5.71,2.34-2.61,0-4.66-.93-6.1-2.75-1.47-1.85-2.24-4.5-2.31-7.87v-1c.07-3.38.87-6.02,2.41-7.86,1.51-1.84,3.65-2.77,6.37-2.77,3.5,0,6.01,1.51,7.46,4.48l.05.1,3.17-1.36-.05-.11c-1-2.11-2.43-3.75-4.25-4.88-1.83-1.12-3.97-1.69-6.38-1.69-3.68,0-6.66,1.28-8.85,3.8-2.17,2.51-3.31,5.96-3.39,10.28v1.01c.08,4.33,1.19,7.8,3.29,10.3,2.12,2.51,5.01,3.79,8.58,3.79s6.31-1.22,8.42-3.62v3.62h3.46v-16.32h-9.7v3.46Z"/>
  </g>
</svg>